<?xml version="1.0" encoding="UTF-8"?>
<svg version="1.1" xmlns="http://www.w3.org/2000/svg" width="821" height="345">
<path d="M0 0 C99 0 198 0 300 0 C300 111.87 300 223.74 300 339 C201 339 102 339 0 339 C0 227.13 0 115.26 0 0 Z " fill="#023996" transform="translate(4,4)"/>
<path d="M0 0 C99 0 198 0 300 0 C300 28.05 300 56.1 300 85 C201 85 102 85 0 85 C0 56.95 0 28.9 0 0 Z " fill="#063C9A" transform="translate(4,4)"/>
<path d="M0 0 C42.8125 0 42.8125 0 51.1875 8 C54.67715197 12.34720635 55.36429623 16.27317807 55.28125 21.84765625 C54.44860244 28.21972298 50.65572537 32.86157745 46 37 C46.53109375 37.27972656 47.0621875 37.55945313 47.609375 37.84765625 C52.50714281 40.62722886 56.40620867 43.35200198 58 49 C58.81508311 55.6480216 58.98484146 62.38885155 55.45703125 68.28515625 C50.30336867 74.35072695 44.64336812 76.08915797 37 78 C24.79 78 12.58 78 0 78 C0 52.26 0 26.52 0 0 Z M17 12 C17 18.27 17 24.54 17 31 C20.0628125 31.0928125 20.0628125 31.0928125 23.1875 31.1875 C24.91033203 31.23970703 24.91033203 31.23970703 26.66796875 31.29296875 C30.33289234 30.97073045 32.09664715 30.21232393 35 28 C37.44063627 24.3390456 37.84106874 21.2568377 37 17 C34.00793073 13.66597996 31.41361967 12.39232175 27 12 C23.66176464 11.93323529 20.33992374 11.95546768 17 12 Z M17 43 C17 50.59 17 58.18 17 66 C19.536875 65.896875 22.07375 65.79375 24.6875 65.6875 C25.87218872 65.65015747 25.87218872 65.65015747 27.08081055 65.61206055 C31.46293484 65.38433857 34.44536285 64.80803121 38 62 C40.35065577 58.05696452 41.10611213 55.89437366 40.5625 51.3125 C38.63173782 47.21928419 37.04262808 45.98317604 33 44 C27.52163342 42.75961511 22.75254294 43 17 43 Z " fill="#004181" transform="translate(465,169)"/>
<path d="M0 0 C42.8125 0 42.8125 0 51.1875 8 C54.67715197 12.34720635 55.36429623 16.27317807 55.28125 21.84765625 C54.44860244 28.21972298 50.65572537 32.86157745 46 37 C46.53109375 37.27972656 47.0621875 37.55945313 47.609375 37.84765625 C52.50714281 40.62722886 56.40620867 43.35200198 58 49 C58.81508311 55.6480216 58.98484146 62.38885155 55.45703125 68.28515625 C50.30336867 74.35072695 44.64336812 76.08915797 37 78 C24.79 78 12.58 78 0 78 C0 52.26 0 26.52 0 0 Z M17 12 C17 18.27 17 24.54 17 31 C20.0628125 31.0928125 20.0628125 31.0928125 23.1875 31.1875 C24.91033203 31.23970703 24.91033203 31.23970703 26.66796875 31.29296875 C30.33289234 30.97073045 32.09664715 30.21232393 35 28 C37.44063627 24.3390456 37.84106874 21.2568377 37 17 C34.00793073 13.66597996 31.41361967 12.39232175 27 12 C23.66176464 11.93323529 20.33992374 11.95546768 17 12 Z M17 43 C17 50.59 17 58.18 17 66 C19.536875 65.896875 22.07375 65.79375 24.6875 65.6875 C25.87218872 65.65015747 25.87218872 65.65015747 27.08081055 65.61206055 C31.46293484 65.38433857 34.44536285 64.80803121 38 62 C40.35065577 58.05696452 41.10611213 55.89437366 40.5625 51.3125 C38.63173782 47.21928419 37.04262808 45.98317604 33 44 C27.52163342 42.75961511 22.75254294 43 17 43 Z " fill="#004181" transform="translate(330,169)"/>
<path d="M0 0 C1.2055957 -0.02416992 1.2055957 -0.02416992 2.43554688 -0.04882812 C12.45348787 -0.05688761 19.22292104 2.86540274 26.453125 9.78125 C34.07574926 18.4166705 36.07265656 28.94016375 36 40.125 C35.99581055 41.00575195 35.99162109 41.88650391 35.98730469 42.79394531 C35.87384503 49.33839489 35.15052972 55.19739174 32.6875 61.3125 C32.4090625 62.034375 32.130625 62.75625 31.84375 63.5 C28.51493946 71.07591364 23.00764862 76.1075424 15.58203125 79.5859375 C6.75419135 82.9714596 -6.2558305 82.97296029 -15.0625 79.6875 C-24.09031046 75.19714558 -29.75678915 68.28463301 -33.0625 58.8125 C-37.03235738 44.04463055 -36.22468978 28.3354201 -28.8828125 14.83984375 C-22.18084137 4.05333798 -12.23429999 -0.04835692 0 0 Z M-11.71484375 17.94140625 C-18.30106876 27.39120735 -18.42882388 39.50761374 -16.84765625 50.5625 C-15.48133236 57.0303054 -13.52898804 62.05258067 -8.3125 66.3125 C-3.84621146 69.04960436 0.59580935 68.94190075 5.6875 68.3125 C11.16214982 65.83341329 14.18972199 61.65635175 16.6875 56.3125 C17.9187058 51.08070055 17.946242 45.97571253 18 40.625 C18.02900391 39.68205078 18.05800781 38.73910156 18.08789062 37.76757812 C18.15211364 30.57954113 17.15899782 23.17629214 12.16870117 17.62207031 C7.43382605 13.57738295 4.25955574 13.00514076 -1.77734375 13.109375 C-6.10202169 13.45588232 -8.86054574 14.62596817 -11.71484375 17.94140625 Z " fill="#004080" transform="translate(627.3125,167.6875)"/>
<path d="M0 0 C5.61 0 11.22 0 17 0 C17.33 10.56 17.66 21.12 18 32 C20.10375 29.133125 22.2075 26.26625 24.375 23.3125 C25.68025234 21.57236343 26.98610396 19.83267593 28.29296875 18.09375 C30.52995583 15.08486463 32.60604871 12.08550592 34.48828125 8.84375 C36.63898785 5.29423291 38.61391654 2.51638536 42 0 C48.27183152 -1.46607256 54.67252733 -0.76007629 61 0 C59.64255131 2.91616587 58.08255825 5.34662063 56.09375 7.87109375 C55.51898926 8.60473145 54.94422852 9.33836914 54.35205078 10.09423828 C53.43528564 11.25415283 53.43528564 11.25415283 52.5 12.4375 C51.23668221 14.04794418 49.97366376 15.65862322 48.7109375 17.26953125 C48.08541992 18.06568848 47.45990234 18.8618457 46.81542969 19.68212891 C44.2317036 22.98093141 41.67545005 26.30044113 39.125 29.625 C37.92230469 31.19121094 37.92230469 31.19121094 36.6953125 32.7890625 C36.13585937 33.51867187 35.57640625 34.24828125 35 35 C39.06549817 41.62790723 43.37750488 48.03529448 47.875 54.375 C48.38740234 55.09751953 48.89980469 55.82003906 49.42773438 56.56445312 C50.45436017 58.01053259 51.48137392 59.45633671 52.50878906 60.90185547 C54.76391381 64.07483223 57.01443468 67.25070754 59.25 70.4375 C59.97703125 71.46746094 60.7040625 72.49742187 61.453125 73.55859375 C63 76 63 76 63 78 C45.4943503 79.78807708 45.4943503 79.78807708 40.171875 75.97265625 C38.13162976 73.08230883 36.5628843 70.17230609 35 67 C33.71354203 65.0244617 32.40049737 63.06600199 31.0625 61.125 C29.0515625 58.093125 29.0515625 58.093125 27 55 C24.03 50.71 21.06 46.42 18 42 C17.67 53.88 17.34 65.76 17 78 C11.39 78 5.78 78 0 78 C0 52.26 0 26.52 0 0 Z " fill="#004081" transform="translate(740,169)"/>
<path d="M0 0 C6.93 0 13.86 0 21 0 C27.10500196 18.1201654 33.15156797 36.25793459 38.94763184 54.47967529 C39.48155208 56.15677621 40.01743417 57.83325386 40.55529785 59.50909424 C41.30841756 61.85839468 42.05379125 64.21000885 42.796875 66.5625 C43.02129272 67.25886566 43.24571045 67.95523132 43.47692871 68.67269897 C44.51512679 71.99154673 45 74.47587328 45 78 C39.06 78 33.12 78 27 78 C23 64.375 23 64.375 23 61 C14.75 61 6.5 61 -2 61 C-3.32 66.61 -4.64 72.22 -6 78 C-11.94 78 -17.88 78 -24 78 C-22.40063112 69.99609319 -19.99013788 62.31596467 -17.5 54.55078125 C-17.05891464 53.16564769 -16.61816545 51.78040705 -16.17773438 50.39506531 C-15.02464255 46.77137322 -13.86681333 43.14921204 -12.70800781 39.52734375 C-11.53142966 35.84668271 -10.35978214 32.1644529 -9.1875 28.48242188 C-7.47109282 23.09470964 -5.75314423 17.70749452 -4.03125 12.3215332 C-3.68642578 11.24281448 -3.34160156 10.16409576 -2.98632812 9.0526886 C-2.00939646 6.02908208 -1.00481799 3.01445396 0 0 Z M10 16 C8.85574369 20.07375028 7.71655433 24.14887304 6.58203125 28.2253418 C6.19539995 29.61179775 5.80738875 30.99786966 5.41796875 32.38354492 C4.85833995 34.3757949 4.30369449 36.369375 3.75 38.36328125 C3.41484375 39.56251221 3.0796875 40.76174316 2.734375 41.99731445 C1.88121466 44.97048756 1.88121466 44.97048756 2 48 C7.61 48 13.22 48 19 48 C17.62167807 40.68017382 15.87642407 33.54756759 13.875 26.375 C13.59785156 25.37082031 13.32070313 24.36664063 13.03515625 23.33203125 C12.35989931 20.88713545 11.68147179 18.44316934 11 16 C10.67 16 10.34 16 10 16 Z " fill="#004081" transform="translate(413,169)"/>
<path d="M0 0 C2.51522009 2.51522009 2.35317085 3.50778101 2.4375 7 C2.47746094 7.886875 2.51742187 8.77375 2.55859375 9.6875 C0.99984414 18.9309942 -4.71401937 25.47397034 -11.125 31.9375 C-11.84042969 32.67806641 -12.55585938 33.41863281 -13.29296875 34.18164062 C-18.29072151 39.34287128 -18.29072151 39.34287128 -20.66357422 41.54125977 C-22.25175979 43.0758061 -22.25175979 43.0758061 -23 46 C-17.95501825 44.54400343 -15.3746277 41.61109742 -12 37.8125 C-11.49210937 37.26013672 -10.98421875 36.70777344 -10.4609375 36.13867188 C-7.83504409 33.24008953 -5.46548936 30.29918511 -3.25 27.07421875 C-2.13625 25.55248047 -2.13625 25.55248047 -1 24 C-0.34 24 0.32 24 1 24 C1.185625 22.2984375 1.185625 22.2984375 1.375 20.5625 C1.58125 19.386875 1.7875 18.21125 2 17 C2.99 16.505 2.99 16.505 4 16 C4.87574338 24.75743378 2.27261647 31.67901005 -3.265625 38.57617188 C-5.4396458 41.07816995 -7.69945981 43.45520246 -10.0234375 45.8203125 C-12.22391573 47.75652345 -12.22391573 47.75652345 -12 50 C-10.97261719 50.37511719 -9.94523438 50.75023437 -8.88671875 51.13671875 C-1.79387497 53.74788196 5.18036356 56.4405627 12.02734375 59.65234375 C15.81228749 61.36825123 19.65139885 62.93327938 23.5 64.5 C29.20253154 66.82457102 34.83426293 69.24940171 40.42578125 71.83203125 C44.07589481 73.48815257 47.77582909 75.01353036 51.48046875 76.54296875 C55.93202371 78.38584333 60.37244328 80.25462611 64.8125 82.125 C65.61300781 82.46184814 66.41351563 82.79869629 67.23828125 83.14575195 C71.83271571 85.08067888 76.42004292 87.03104649 81 89 C81 91.31 81 93.62 81 96 C76.63395143 95.29407425 72.65073835 93.84581613 68.54296875 92.26171875 C67.81583176 91.98501846 67.08869476 91.70831818 66.33952332 91.42323303 C64.77238645 90.82639176 63.20592506 90.22777442 61.64007568 89.62756348 C59.15476802 88.67495395 56.6677488 87.72695041 54.18017578 86.78027344 C51.62171488 85.80660928 49.06334387 84.83271856 46.50549316 83.85745239 C38.47204228 80.79473039 30.42610812 77.76595045 22.375 74.75 C21.72722595 74.50714264 21.0794519 74.26428528 20.41204834 74.0140686 C9.75571469 70.01931823 -0.91275925 66.05774985 -11.59033203 62.12011719 C-12.62657715 61.73758789 -13.66282227 61.35505859 -14.73046875 60.9609375 C-16.08241333 60.46279541 -16.08241333 60.46279541 -17.46166992 59.95458984 C-19.14881769 59.32010415 -20.81515401 58.6271682 -22.4543457 57.87744141 C-27.4643577 56.15058007 -31.48989979 56.89935704 -36.3125 58.80859375 C-37.364375 59.21722656 -38.41625 59.62585938 -39.5 60.046875 C-41.2325 60.73523438 -41.2325 60.73523438 -43 61.4375 C-45.60210167 62.45196055 -48.20736382 63.45820568 -50.8125 64.46484375 C-51.52108154 64.73964569 -52.22966309 65.01444763 -52.9597168 65.2975769 C-62.92797828 69.1522231 -72.96949669 72.81126512 -83 76.5 C-99.17256884 82.44785151 -99.17256884 82.44785151 -115.29296875 88.53515625 C-115.98351349 88.79924286 -116.67405823 89.06332947 -117.38552856 89.3354187 C-120.51465085 90.53364531 -123.64075915 91.7387537 -126.76367188 92.953125 C-127.82521484 93.36175781 -128.88675781 93.77039063 -129.98046875 94.19140625 C-130.88692139 94.54404541 -131.79337402 94.89668457 -132.72729492 95.26000977 C-135 96 -135 96 -138 96 C-138 94.02 -138 92.04 -138 90 C-128.97409359 85.2266434 -119.5870767 81.33633596 -110.1875 77.375 C-108.44210312 76.63658818 -106.69682574 75.89789385 -104.95166016 75.15893555 C-100.28293628 73.18311682 -95.61246583 71.21146214 -90.94146729 69.24102783 C-85.91219966 67.11914087 -80.88392771 64.99489619 -75.85546875 62.87109375 C-69.97221968 60.38638261 -64.088728 57.90225537 -58.20385742 55.42138672 C-57.30086411 55.04056946 -56.39787079 54.6597522 -55.46751404 54.26739502 C-53.71878556 53.52998917 -51.96989928 52.79295741 -50.22084045 52.05633545 C-46.35973294 50.42810958 -42.50364723 48.79033801 -38.66113281 47.11865234 C-38.0058963 46.83422775 -37.35065979 46.54980316 -36.67556763 46.25675964 C-34.95692242 45.50868124 -33.2403325 44.7558858 -31.52392578 44.00268555 C-29 43 -29 43 -27 43 C-26.7215625 41.7625 -26.7215625 41.7625 -26.4375 40.5 C-24.49175214 35.76252695 -21.47101516 32.70767528 -18 29 C-5.75352827 16.23914188 -5.75352827 16.23914188 0 0 Z " fill="#A2860B" transform="translate(183,154)"/>
<path d="M0 0 C0.89847656 0.21833496 1.79695313 0.43666992 2.72265625 0.66162109 C13.86160883 3.64586914 13.86160883 3.64586914 17 8 C17.83321725 11.81104353 17.66322929 15.43541344 17.4375 19.3125 C17.40591797 20.33923828 17.37433594 21.36597656 17.34179688 22.42382812 C17.25947936 24.95215184 17.14459011 27.4745986 17 30 C14.19936327 29.5086145 12.22095172 29.13653882 9.78125 27.62890625 C-3.22461486 20.01170731 -20.26462022 18.7069925 -35 18 C-36.76923828 17.91105469 -36.76923828 17.91105469 -38.57421875 17.8203125 C-57.3827503 17.3955276 -77.04838948 20.67830029 -94 29 C-94.66 29 -95.32 29 -96 29 C-96 22.07 -96 15.14 -96 8 C-83.79535487 1.89767743 -71.82688688 -1.31750478 -58.44921875 -3.421875 C-38.5424506 -6.75845675 -19.64581592 -4.86036396 0 0 Z " fill="#A48709" transform="translate(194,264)"/>
<path d="M0 0 C2.79590708 1.77508908 4.80683983 3.67992655 6.92578125 6.22265625 C5.85385941 7.54449245 4.7677543 8.85483552 3.67578125 10.16015625 C3.0725 10.89105469 2.46921875 11.62195313 1.84765625 12.375 C-0.22626291 14.36882879 -1.2201507 15.04392792 -4.07421875 15.22265625 C-5.8984375 14.4453125 -5.8984375 14.4453125 -7.76171875 13.28515625 C-12.27834859 10.87572732 -16.02879313 10.3681157 -21.07421875 11.22265625 C-26.38295097 13.1691914 -28.32167316 15.1128269 -30.94921875 20.09765625 C-35.86296254 31.1817734 -35.2409594 43.92727497 -31.07421875 55.22265625 C-29.05037753 58.98121852 -26.50458529 60.96609158 -22.82421875 63.16015625 C-17.66563996 64.62175357 -12.98793363 64.7203057 -8.12109375 62.21875 C-7.23164062 61.66380859 -7.23164062 61.66380859 -6.32421875 61.09765625 C-3.07421875 59.22265625 -3.07421875 59.22265625 -0.51171875 58.97265625 C3.43802731 60.99816705 5.51363089 64.58370777 7.92578125 68.22265625 C3.37882724 73.33797952 -1.60258885 76.06544628 -8.07421875 78.22265625 C-20.305702 78.85742384 -30.39762855 79.32795948 -40.26171875 71.28515625 C-49.21970295 62.64759762 -52.45864105 52.45562578 -53.07421875 40.22265625 C-53.16692462 27.21734657 -50.98928383 16.03370777 -42.07421875 6.22265625 C-31.4758295 -4.375733 -13.46883348 -6.49016328 0 0 Z " fill="#004080" transform="translate(724.07421875,170.77734375)"/>
<path d="M0 0 C2.79590708 1.77508908 4.80683983 3.67992655 6.92578125 6.22265625 C5.85385941 7.54449245 4.7677543 8.85483552 3.67578125 10.16015625 C3.0725 10.89105469 2.46921875 11.62195313 1.84765625 12.375 C-0.22626291 14.36882879 -1.2201507 15.04392792 -4.07421875 15.22265625 C-5.8984375 14.4453125 -5.8984375 14.4453125 -7.76171875 13.28515625 C-12.27834859 10.87572732 -16.02879313 10.3681157 -21.07421875 11.22265625 C-26.38295097 13.1691914 -28.32167316 15.1128269 -30.94921875 20.09765625 C-35.86296254 31.1817734 -35.2409594 43.92727497 -31.07421875 55.22265625 C-29.05037753 58.98121852 -26.50458529 60.96609158 -22.82421875 63.16015625 C-17.66563996 64.62175357 -12.98793363 64.7203057 -8.12109375 62.21875 C-7.23164062 61.66380859 -7.23164062 61.66380859 -6.32421875 61.09765625 C-3.07421875 59.22265625 -3.07421875 59.22265625 -0.51171875 58.97265625 C3.43802731 60.99816705 5.51363089 64.58370777 7.92578125 68.22265625 C3.37882724 73.33797952 -1.60258885 76.06544628 -8.07421875 78.22265625 C-20.305702 78.85742384 -30.39762855 79.32795948 -40.26171875 71.28515625 C-49.21970295 62.64759762 -52.45864105 52.45562578 -53.07421875 40.22265625 C-53.16692462 27.21734657 -50.98928383 16.03370777 -42.07421875 6.22265625 C-31.4758295 -4.375733 -13.46883348 -6.49016328 0 0 Z " fill="#004080" transform="translate(582.07421875,170.77734375)"/>
<path d="M0 0 C1.11568359 0.40468506 2.23136719 0.80937012 3.38085938 1.22631836 C3.99673416 1.4473674 4.61260895 1.66841644 5.24714661 1.89616394 C7.24187775 2.61344317 9.23318716 3.33975275 11.22460938 4.06616211 C13.3180051 4.82171498 15.41219834 5.57502847 17.50642395 6.32827759 C18.90953068 6.83316288 20.31235305 7.33883913 21.71488953 7.8453064 C27.80192193 10.04138581 33.91633216 12.15363325 40.03710938 14.25366211 C49.01946399 17.35346123 57.88246573 20.70180006 66.71289062 24.20874023 C69.91681189 25.47475572 73.13318024 26.70727335 76.34960938 27.94116211 C77.39375 28.34206055 78.43789062 28.74295898 79.51367188 29.15600586 C80.60808594 29.5755957 80.60808594 29.5755957 81.72460938 30.00366211 C81.72460938 31.65366211 81.72460938 33.30366211 81.72460938 35.00366211 C73.8699286 34.59491707 66.87611398 32.78142362 59.41210938 30.37866211 C58.27491455 30.0211084 57.13771973 29.66355469 55.96606445 29.29516602 C48.06988496 26.79838092 40.21696707 24.17842428 32.37475586 21.51782227 C25.28260898 19.13391885 18.12282577 17.04096954 10.9128418 15.04418945 C10.10306885 14.81940918 9.2932959 14.59462891 8.45898438 14.36303711 C7.66685547 14.14583008 6.87472656 13.92862305 6.05859375 13.70483398 C3.72460938 13.00366211 3.72460938 13.00366211 1.46875 12.13061523 C-8.8231271 8.15277317 -17.80661391 11.5146456 -27.90039062 14.81616211 C-30.45058348 15.62797715 -33.00134624 16.43781657 -35.55273438 17.24584961 C-36.23155167 17.46186325 -36.91036896 17.67787689 -37.60975647 17.9004364 C-45.98224539 20.55947281 -54.38869685 23.10591878 -62.80023193 25.63827515 C-65.41577014 26.4269536 -68.02941678 27.22169089 -70.64306641 28.01660156 C-78.47561598 30.38336377 -86.19530759 32.62534355 -94.27539062 34.00366211 C-94.27539062 34.66366211 -94.27539062 35.32366211 -94.27539062 36.00366211 C-95.26539062 36.00366211 -96.25539063 36.00366211 -97.27539062 36.00366211 C-97.27539062 33.69366211 -97.27539062 31.38366211 -97.27539062 29.00366211 C-74.27948511 20.59930402 -51.1994673 12.45895196 -28.05297852 4.47851562 C-27.0189238 4.12155106 -25.98486908 3.76458649 -24.91947937 3.39680481 C-22.96445546 2.72214664 -21.00899951 2.04873876 -19.05305481 1.37675476 C-18.18718246 1.07799942 -17.32131012 0.77924408 -16.42919922 0.47143555 C-15.29301651 0.0805777 -15.29301651 0.0805777 -14.13388062 -0.31817627 C-8.90251663 -2.22709711 -5.48068832 -1.66716525 0 0 Z " fill="#A2860B" transform="translate(162.275390625,223.996337890625)"/>
<path d="M0 0 C3.3 0 6.6 0 10 0 C10.35602295 0.66193359 10.7120459 1.32386719 11.07885742 2.00585938 C19.69265209 18.01845321 28.33380402 34.01568298 37 50 C37.33 33.5 37.66 17 38 0 C40.31 0 42.62 0 45 0 C45 21.45 45 42.9 45 65 C41.7 65 38.4 65 35 65 C34.6690332 64.35788574 34.33806641 63.71577148 33.99707031 63.05419922 C26.55165214 48.62710021 18.97037327 34.28925556 11.12231445 20.0769043 C10.03963878 18.07335373 9.01846959 16.03693917 8 14 C8 30.83 8 47.66 8 65 C5.36 65 2.72 65 0 65 C0 43.55 0 22.1 0 0 Z " fill="#B88B39" transform="translate(394,275)"/>
<path d="M0 0 C27 0 27 0 35 3 C41.00978206 9.26551747 41.35543666 13.08421651 41.27734375 21.5703125 C40.93208491 25.83985134 40.03367854 27.96632146 37 31 C31.84210526 35 31.84210526 35 28 35 C30.08050643 38.54333442 32.16490816 42.08436226 34.25 45.625 C35.12978516 47.12353516 35.12978516 47.12353516 36.02734375 48.65234375 C39.58392537 54.70794869 39.58392537 54.70794869 43.421875 60.5859375 C45 63 45 63 45 65 C41.85033871 65.56693903 39.13782505 65.70133507 36 65 C32.66766974 62.04634363 30.90238228 57.71256713 28.85302734 53.82324219 C27.98538161 52.1992638 27.10061503 50.58433937 26.20068359 48.97802734 C25.2884892 47.34968174 24.41101618 45.70130179 23.57275391 44.03369141 C22.15702869 41.33211917 22.15702869 41.33211917 19 38 C15.37 37.67 11.74 37.34 8 37 C8 46.24 8 55.48 8 65 C5.36 65 2.72 65 0 65 C0 43.55 0 22.1 0 0 Z M8 6 C8 14.25 8 22.5 8 31 C19.67646965 31.28292636 19.67646965 31.28292636 30 27 C32.91882239 24.08117761 33.21771703 22.22241302 33.375 18.1875 C33.33047194 14.33025682 33.18286939 13.25816855 30.875 10 C25.6066463 6.33505829 20.96166386 5.7554403 14.625 5.875 C12.43875 5.91625 10.2525 5.9575 8 6 Z " fill="#B88C39" transform="translate(586,275)"/>
<path d="M0 0 C4.95 0 9.9 0 15 0 C15 27.06 15 54.12 15 82 C10.05 82 5.1 82 0 82 C0 54.94 0 27.88 0 0 Z " fill="#A88907" transform="translate(289,4)"/>
<path d="M0 0 C2.64 0 5.28 0 8 0 C8.00586624 0.60055206 8.01173248 1.20110413 8.01777649 1.81985474 C8.08181217 8.08203348 8.16625822 14.34370315 8.26245117 20.60546875 C8.29566333 22.94101237 8.32370676 25.27663553 8.34643555 27.61230469 C8.38004901 30.97365145 8.43237003 34.33427169 8.48828125 37.6953125 C8.49467117 38.73615997 8.5010611 39.77700745 8.50764465 40.84939575 C8.63561991 47.18903801 9.1804843 51.97163128 13.6875 56.8125 C18.49284962 59.28011197 22.69594361 59.29929163 27.8125 58.125 C28.864375 57.75375 29.91625 57.3825 31 57 C32.485 56.505 32.485 56.505 34 56 C38.9446785 45.72175036 37.56410265 32.32557781 37.6875 21.25 C37.72073003 19.18487492 37.75522479 17.11976979 37.79101562 15.0546875 C37.87526452 10.03656948 37.9423784 5.01849151 38 0 C40.31 0 42.62 0 45 0 C45.10174864 7.25899226 45.17161187 14.51779934 45.21972656 21.77734375 C45.23979295 24.24486158 45.26705244 26.71233215 45.30175781 29.1796875 C45.35049306 32.73449393 45.37301939 36.28866944 45.390625 39.84375 C45.41127014 40.93989624 45.43191528 42.03604248 45.45318604 43.16540527 C45.45532918 50.54611875 44.60055082 56.35299046 39.18359375 61.83984375 C38.31927734 62.38318359 38.31927734 62.38318359 37.4375 62.9375 C36.85871094 63.31777344 36.27992188 63.69804687 35.68359375 64.08984375 C29.39166543 67.49128064 19.1437404 67.06640378 12.34375 65.31640625 C6.77720384 62.7365262 3.04979695 58.79785753 0.87939453 53.01342773 C-0.46979032 47.94231068 -0.24724412 42.80806982 -0.1953125 37.59765625 C-0.1924826 36.51995468 -0.18965271 35.44225311 -0.18673706 34.33189392 C-0.17559193 30.90864701 -0.15049756 27.48566709 -0.125 24.0625 C-0.11496289 21.73372775 -0.10583832 19.40495138 -0.09765625 17.07617188 C-0.07567116 11.38402435 -0.04225013 5.69203126 0 0 Z " fill="#B88B39" transform="translate(330,275)"/>
<path d="M0 0 C2.67471841 1.3887961 4.98624997 2.70671873 7.25 4.6875 C6.67655063 7.55474686 6.3885485 8.5489515 4.25 10.6875 C1.10032159 10.2711246 -1.57321461 8.88163949 -4.4375 7.5625 C-9.47407298 5.53449938 -13.53988061 4.93369997 -18.75 6.6875 C-22.51322807 9.29871948 -23.55418049 10.69060068 -24.4375 15.1875 C-23.67666203 19.06085695 -22.63046674 20.12282824 -19.59301758 22.50537109 C-16.3740377 24.57005523 -12.88388891 25.62917838 -9.25 26.75 C2.62758843 30.4760976 2.62758843 30.4760976 6.7109375 35.4765625 C9.72419321 41.52882824 10.62060759 47.42175872 8.51953125 53.9609375 C6.09953201 59.27505829 3.08083633 62.54856293 -2.4296875 64.765625 C-6.16453914 65.80259557 -9.65230758 66.07124894 -13.5 66.0625 C-14.20157227 66.06161377 -14.90314453 66.06072754 -15.62597656 66.05981445 C-23.48262444 65.88191105 -29.57783914 63.53904086 -35.75 58.6875 C-35.17655063 55.82025314 -34.8885485 54.8260485 -32.75 52.6875 C-29.82819601 53.07226431 -27.64817243 54.22728106 -25.125 55.6875 C-19.94678362 58.32000107 -14.45540956 59.4850453 -8.69921875 58.24609375 C-4.52707587 56.68265691 -1.89669407 54.55154932 0.25 50.6875 C0.8566924 47.86580799 1.09556903 45.46054625 0.25 42.6875 C-3.74866186 37.46475798 -8.71047673 35.82930295 -14.6875 33.6875 C-28.13511926 28.84753755 -28.13511926 28.84753755 -32.125 22.5 C-33.38418281 16.83367736 -33.67219513 11.72401424 -31.25 6.375 C-23.00283689 -2.49070034 -11.46260598 -4.0291491 0 0 Z " fill="#B88A37" transform="translate(671.75,275.3125)"/>
<path d="M0 0 C2.64 0 5.28 0 8 0 C10.71123176 6.54345826 13.09866369 13.11217797 15.19921875 19.875 C15.47973587 20.76614502 15.76025299 21.65729004 16.04927063 22.57543945 C16.93233052 25.38249602 17.81024026 28.19112594 18.6875 31 C19.57625347 33.83718378 20.46612018 36.67400868 21.35786438 39.51025391 C21.90957604 41.26583747 22.45943621 43.02200419 23.00724792 44.77880859 C23.37817314 45.96144287 23.37817314 45.96144287 23.7565918 47.16796875 C23.97324997 47.86172607 24.18990814 48.5554834 24.41313171 49.27026367 C24.98359349 51.08062775 24.98359349 51.08062775 26 53 C31.61 35.51 37.22 18.02 43 0 C45.64 0 48.28 0 51 0 C50.37984889 5.73292054 48.89909487 10.85776181 47.05078125 16.30859375 C46.75568161 17.19297623 46.46058197 18.0773587 46.15653992 18.98854065 C45.53144038 20.85781632 44.9034362 22.72612287 44.27270508 24.59350586 C43.32671376 27.39540083 42.39010371 30.20028856 41.45507812 33.00585938 C37.85653538 43.75794679 34.07301413 54.41845438 30 65 C27.03 65 24.06 65 21 65 C20.78115646 64.34124878 20.56231293 63.68249756 20.33683777 63.00378418 C18.26432278 56.76612096 16.19032817 50.52895187 14.11471081 44.29232025 C13.04791914 41.08674834 11.98168093 37.88099464 10.91674805 34.67480469 C9.68942043 30.98064169 8.46013041 27.28713663 7.23046875 23.59375 C6.85222458 22.4538562 6.47398041 21.3139624 6.08427429 20.13952637 C4.54627971 15.52522006 2.99943595 10.93375083 1.2355957 6.40039062 C0 3 0 3 0 0 Z " fill="#B88A37" transform="translate(477,275)"/>
<path d="M0 0 C11.55 0 23.1 0 35 0 C35 1.98 35 3.96 35 6 C26.09 6 17.18 6 8 6 C8 13.26 8 20.52 8 28 C15.59 28 23.18 28 31 28 C31 29.98 31 31.96 31 34 C23.41 34 15.82 34 8 34 C8 42.25 8 50.5 8 59 C17.24 59 26.48 59 36 59 C36 60.98 36 62.96 36 65 C24.12 65 12.24 65 0 65 C0 43.55 0 22.1 0 0 Z " fill="#B88C3A" transform="translate(538,275)"/>
<path d="M0 0 C1.31661592 2.97819671 1.05752703 3.82741891 0 7 C-4.86794959 5.46275276 -9.58260153 3.77488671 -14.28979492 1.79418945 C-21.20035179 -1.09787815 -27.7871911 -3.06608052 -35.171875 -4.45703125 C-38 -5 -38 -5 -41 -6 C-43.4247637 -6.1326257 -45.81993857 -6.21150466 -48.24609375 -6.23828125 C-48.96488708 -6.2480751 -49.68368042 -6.25786896 -50.42425537 -6.26795959 C-72.729665 -6.50892328 -94.04175268 -5.41560884 -114.25 5.1796875 C-116 6 -116 6 -119 6 C-119.36716607 0.49250897 -119.36716607 0.49250897 -117.8671875 -1.51953125 C-89.39877847 -24.09176351 -27.96233034 -21.37434675 0 0 Z " fill="#A0850D" transform="translate(214,260)"/>
<path d="M0 0 C99 0 198 0 300 0 C300 0.99 300 1.98 300 3 C201 3 102 3 0 3 C0 2.01 0 1.02 0 0 Z " fill="#EEF5F9" transform="translate(4,86)"/>
<path d="M0 0 C6.10001345 3.88182674 6.10001345 3.88182674 7.33984375 7.4453125 C7.89115963 10.54318267 7.95971232 13.54170367 8 16.6875 C8.02578125 17.89277344 8.0515625 19.09804688 8.078125 20.33984375 C7.62025658 25.09840483 5.84804801 27.58736093 2.625 31 C-1.29432967 33.38567893 -4.68690874 33.94600907 -9.25 33.75 C-14.49281997 32.17715401 -17.71346256 29.91063228 -21.25 25.75 C-23.12350754 20.12947739 -23.34893145 13.10942775 -21.49609375 7.4453125 C-16.89582392 -0.96145511 -8.76900643 -3.37269478 0 0 Z " fill="#EBF0F7" transform="translate(192.25,12.25)"/>
<path d="M0 0 C2.97 0 5.94 0 9 0 C9.34256836 0.69561035 9.68513672 1.3912207 10.03808594 2.10791016 C11.60444521 5.28240533 13.1771582 8.453712 14.75 11.625 C15.28882813 12.71941406 15.82765625 13.81382812 16.3828125 14.94140625 C18.98977529 20.18712406 21.56503367 25.24774076 25 30 C25.34256836 29.33991943 25.68513672 28.67983887 26.03808594 27.99975586 C27.60725208 24.97823691 29.17860787 21.95786184 30.75 18.9375 C31.28882813 17.89916016 31.82765625 16.86082031 32.3828125 15.79101562 C35.15601072 10.46444588 37.96988419 5.18502827 41 0 C43.64 0 46.28 0 49 0 C48.41117124 3.76431312 47.33716826 6.59118997 45.48828125 9.9140625 C44.97716797 10.84089844 44.46605469 11.76773437 43.93945312 12.72265625 C43.40255859 13.68042969 42.86566406 14.63820313 42.3125 15.625 C41.79494141 16.55957031 41.27738281 17.49414062 40.74414062 18.45703125 C40.22658203 19.39160156 39.70902344 20.32617188 39.17578125 21.2890625 C38.65604736 22.23765137 38.13631348 23.18624023 37.60083008 24.16357422 C36.54666394 26.03139521 35.44534647 27.8734939 34.2956543 29.68408203 C29.80081479 37.01907105 29.13471667 43.11248874 29.1875 51.625 C29.16340754 53.95055679 29.1362432 56.27608454 29.10546875 58.6015625 C29.10699951 59.61557129 29.10853027 60.62958008 29.11010742 61.67431641 C29 64 29 64 28 65 C25.66702567 65.04092937 23.33294775 65.04241723 21 65 C21.06396973 64.42072754 21.12793945 63.84145508 21.19384766 63.24462891 C23.2201331 40.07488598 12.51076388 21.76614582 0 3 C0 2.01 0 1.02 0 0 Z " fill="#B38636" transform="translate(760,275)"/>
<path d="M0 0 C4.8571875 -0.061875 4.8571875 -0.061875 9.8125 -0.125 C10.82932861 -0.14320801 11.84615723 -0.16141602 12.89379883 -0.18017578 C13.69841553 -0.1851709 14.50303223 -0.19016602 15.33203125 -0.1953125 C16.15421143 -0.20578613 16.9763916 -0.21625977 17.82348633 -0.22705078 C20 0 20 0 23 2 C23 2.66 23 3.32 23 4 C23.66 4 24.32 4 25 4 C25 6.64 25 9.28 25 12 C24.34 12 23.68 12 23 12 C23.57452746 15.93075644 23.57452746 15.93075644 26 19 C26.47025629 23.98471662 26.07908998 27.00858706 23 31 C19.79593538 33.13604308 19.00399253 33.24208908 15.33203125 33.1953125 C14.52741455 33.19031738 13.72279785 33.18532227 12.89379883 33.18017578 C11.36855591 33.15286377 11.36855591 33.15286377 9.8125 33.125 C6.574375 33.08375 3.33625 33.0425 0 33 C0 22.11 0 11.22 0 0 Z " fill="#EDF1F8" transform="translate(108,12)"/>
<path d="M0 0 C3.2175 -0.103125 6.435 -0.20625 9.75 -0.3125 C11.26158691 -0.38078003 11.26158691 -0.38078003 12.80371094 -0.45043945 C19.35548577 -0.55244077 19.35548577 -0.55244077 22.625 2.25 C24.6094192 6.21883841 24.29674339 8.62303494 24 13 C23.01 13.33 22.02 13.66 21 14 C21 14.66 21 15.32 21 16 C21.639375 16.309375 22.27875 16.61875 22.9375 16.9375 C25 18 25 18 26 19 C26.30859375 20.890625 26.30859375 20.890625 26.4375 23.25 C26.49808594 24.01828125 26.55867188 24.7865625 26.62109375 25.578125 C25.8487769 28.589675 24.43096776 30.16133595 21.97192383 32.03173828 C18.05109557 33.95695865 13.89085669 33.50873913 9.625 33.3125 C6.44875 33.209375 3.2725 33.10625 0 33 C0 22.11 0 11.22 0 0 Z " fill="#EFF3F8" transform="translate(45,12)"/>
<path d="M0 0 C15.51 0 31.02 0 47 0 C47 1.65 47 3.3 47 5 C46.67 5.33 46.34 5.66 46 6 C39.73 6 33.46 6 27 6 C27 25.47 27 44.94 27 65 C24.36 65 21.72 65 19 65 C19 45.53 19 26.06 19 6 C12.73 6 6.46 6 0 6 C0 4.02 0 2.04 0 0 Z " fill="#B98B38" transform="translate(712,275)"/>
<path d="M0 0 C2.64 0 5.28 0 8 0 C8.16798096 0.52352051 8.33596191 1.04704102 8.5090332 1.58642578 C10.842244 8.73369018 13.55188767 15.71578965 16.30273438 22.7109375 C16.65013672 23.608125 16.99753906 24.5053125 17.35546875 25.4296875 C17.82956177 26.63987549 17.82956177 26.63987549 18.31323242 27.87451172 C19 30 19 30 19 33 C16.69 33 14.38 33 12 33 C11.34 30.69 10.68 28.38 10 26 C3.565 26.495 3.565 26.495 -3 27 C-3.66 28.98 -4.32 30.96 -5 33 C-6.98 33 -8.96 33 -11 33 C-9.65084345 26.34191243 -7.78851723 20.07907008 -5.5 13.6875 C-5.19191406 12.80771484 -4.88382812 11.92792969 -4.56640625 11.02148438 C-3.22241691 7.22312824 -1.86328215 3.57890224 0 0 Z " fill="#ECF1F7" transform="translate(85,12)"/>
<path d="M0 0 C2.64 0 5.28 0 8 0 C8 21.45 8 42.9 8 65 C5.36 65 2.72 65 0 65 C0 43.55 0 22.1 0 0 Z " fill="#B98C3A" transform="translate(694,275)"/>
<path d="M0 0 C2.64 0 5.28 0 8 0 C8 21.45 8 42.9 8 65 C5.36 65 2.72 65 0 65 C0 43.55 0 22.1 0 0 Z " fill="#B98C3A" transform="translate(459,275)"/>
<path d="M0 0 C2.31 0 4.62 0 7 0 C7.33 3.96 7.66 7.92 8 12 C8.66 11.01 9.32 10.02 10 9 C10.66 9 11.32 9 12 9 C12.2475 8.443125 12.495 7.88625 12.75 7.3125 C14.33628691 4.37786923 15.52188208 2.28749347 18 0 C21.04397407 -0.42584093 23.94738837 -0.29352035 27 0 C20.84965831 8.44646925 20.84965831 8.44646925 17 12 C18.71356646 16.61344817 21.07903639 20.53328018 23.6875 24.6875 C25 27 25 27 25 29 C25.66 29 26.32 29 27 29 C27.33 30.32 27.66 31.64 28 33 C25.36 33 22.72 33 20 33 C19.01515892 31.25318707 18.03733813 29.5024149 17.0625 27.75 C16.51722656 26.77546875 15.97195312 25.8009375 15.41015625 24.796875 C14.23389165 22.46389591 13.47898309 20.54649238 13 18 C10.33598317 19.27198441 10.33598317 19.27198441 8 22 C7.25243755 25.65884437 7.07071004 29.27165244 7 33 C4.69 33 2.38 33 0 33 C0 22.11 0 11.22 0 0 Z " fill="#E9EEF6" transform="translate(237,12)"/>
<path d="M0 0 C1.9375 0.8125 1.9375 0.8125 3.9375 2.8125 C4.17800903 4.83731079 4.17800903 4.83731079 4.16455078 7.35400391 C4.16432419 8.76524033 4.16432419 8.76524033 4.16409302 10.20498657 C4.15377045 11.22273163 4.14344788 12.24047668 4.1328125 13.2890625 C4.1299826 14.32944672 4.12715271 15.36983093 4.12423706 16.44174194 C4.11301704 19.77377694 4.08790915 23.10554586 4.0625 26.4375 C4.05247256 28.69270446 4.0433463 30.94791312 4.03515625 33.203125 C4.01307174 38.73968629 3.97852946 44.27604799 3.9375 49.8125 C0.9675 49.8125 -2.0025 49.8125 -5.0625 49.8125 C-5.13656994 43.17393446 -5.1910644 36.53560862 -5.22729492 29.89672852 C-5.24239602 27.63757132 -5.26287842 25.37844351 -5.28881836 23.11938477 C-5.32514308 19.87508907 -5.34221308 16.63118044 -5.35546875 13.38671875 C-5.37095261 12.37413498 -5.38643646 11.36155121 -5.40238953 10.31828308 C-5.40272942 8.90715996 -5.40272942 8.90715996 -5.40307617 7.4675293 C-5.40973801 6.63924118 -5.41639984 5.81095306 -5.42326355 4.95756531 C-4.87431812 1.69358869 -3.44482961 -0.31316633 0 0 Z " fill="#978115" transform="translate(140.0625,293.1875)"/>
<path d="M0 0 C4.25488599 2.61095277 4.25488599 2.61095277 5.75 4.6875 C5.75 6.0075 5.75 7.3275 5.75 8.6875 C3.77 9.0175 1.79 9.3475 -0.25 9.6875 C-0.62125 9.0275 -0.9925 8.3675 -1.375 7.6875 C-3.1412495 5.37656548 -3.1412495 5.37656548 -6.25 5.3125 C-9.42702205 5.4825271 -9.42702205 5.4825271 -12.25 7.6875 C-13.26702117 10.7385635 -13.41582083 12.92949061 -13.4375 16.125 C-13.45167969 17.07246094 -13.46585938 18.01992188 -13.48046875 18.99609375 C-13.2411337 21.7910403 -12.86532581 23.40086996 -11.25 25.6875 C-7.39090895 26.59964879 -5.03396692 26.94882231 -1.25 25.6875 C-0.92 24.0375 -0.59 22.3875 -0.25 20.6875 C1.73 21.0175 3.71 21.3475 5.75 21.6875 C5.48791357 25.44407223 4.93677252 27.4328102 2.6875 30.5 C-0.99116681 33.23943273 -3.69613001 33.99051416 -8.25 33.6875 C-12.89839915 32.21550694 -16.2021209 30.52556998 -19.25 26.6875 C-22.19571407 20.46759296 -22.3392973 13.78339758 -20.0625 7.3125 C-14.83419954 -0.25952136 -9.07621737 -3.66539548 0 0 Z " fill="#EBF0F7" transform="translate(225.25,12.3125)"/>
<path d="M0 0 C2.7342966 1.36149893 3.89961363 2.63706533 6 5 C6.875 7.8125 6.875 7.8125 7 10 C5.02 10.33 3.04 10.66 1 11 C0.62875 10.34 0.2575 9.68 -0.125 9 C-1.88922998 6.71436298 -1.88922998 6.71436298 -4.9375 6.5 C-8.71019125 7.11594959 -9.66784768 8.02140887 -12 11 C-12.55698164 13.87032982 -12.55698164 13.87032982 -12.375 16.9375 C-12.35566406 18.46697266 -12.35566406 18.46697266 -12.3359375 20.02734375 C-11.99808415 23.01695307 -11.2527591 25.27900723 -10 28 C-5.29850771 28.44110359 -5.29850771 28.44110359 -1.125 26.6875 C0.18546123 24.88214533 0.18546123 24.88214533 1 22 C2.98 22.33 4.96 22.66 7 23 C6.73791357 26.75657223 6.18677252 28.7453102 3.9375 31.8125 C0.25401279 34.55552239 -2.44244619 35.29459473 -7 35 C-13.26544315 33.12036705 -16.13053117 30.36504389 -19.25 24.75 C-20.72357325 19.34689809 -20.47908675 14.59695583 -18.875 9.25 C-14.54052375 1.73690784 -8.54252236 -1.27564512 0 0 Z " fill="#EBF0F7" transform="translate(158,11)"/>
<path d="M0 0 C2.5575 -0.061875 5.115 -0.12375 7.75 -0.1875 C8.94834473 -0.22846802 8.94834473 -0.22846802 10.17089844 -0.27026367 C13.33080644 -0.30727519 15.6482758 -0.18001632 18.48046875 1.26953125 C20.58076014 3.6613798 20.60447025 5.88596192 20.47265625 8.9921875 C19.69451371 12.29768557 17.57007807 13.94393754 15 16 C15.66 16.78375 16.32 17.5675 17 18.375 C19 21 19 21 19 23 C19.66 23 20.32 23 21 23 C21.33 24.65 21.66 26.3 22 28 C20.02 28 18.04 28 16 28 C13 22.25 13 22.25 13 20 C12.34 20 11.68 20 11 20 C10.34 19.01 9.68 18.02 9 17 C7.35 16.67 5.7 16.34 4 16 C4 19.63 4 23.26 4 27 C2.68 27 1.36 27 0 27 C0 18.09 0 9.18 0 0 Z " fill="#EDF2F8" transform="translate(159,52)"/>
<path d="M0 0 C0.66 0 1.32 0 2 0 C2.5125033 4.78336412 2.58099701 7.80356855 -0.3125 11.75 C-1.5154008 13.18903606 -2.74801368 14.60345949 -4 16 C-4.73089844 16.83789062 -5.46179688 17.67578125 -6.21484375 18.5390625 C-10.49603087 23.32818707 -14.90618768 27.93451703 -19.50390625 32.421875 C-20.29635742 33.19869629 -21.08880859 33.97551758 -21.90527344 34.77587891 C-23.47070013 36.30351944 -25.04514816 37.8219883 -26.62988281 39.32958984 C-31.24033011 43.82613672 -34.68180718 48.284258 -37.79760742 53.92919922 C-39 56 -39 56 -41 58 C-40.95377012 44.33906964 -34.98338129 37.82255297 -26.171875 28.08984375 C-24 26 -24 26 -22 26 C-21.7328418 25.40541992 -21.46568359 24.81083984 -21.19042969 24.19824219 C-19.98132918 21.96552255 -18.77878292 20.57502476 -16.953125 18.828125 C-16.35790039 18.24949707 -15.76267578 17.67086914 -15.14941406 17.07470703 C-14.52260742 16.47255371 -13.89580078 15.87040039 -13.25 15.25 C-9.2921112 11.38960109 -5.48214748 7.63384573 -2.25 3.125 C-1.5075 2.09375 -0.765 1.0625 0 0 Z " fill="#9D840F" transform="translate(161,108)"/>
<path d="M0 0 C4.55555556 0.55555556 4.55555556 0.55555556 6 2 C6.09311889 3.50418739 6.11746028 5.01271356 6.11352539 6.51977539 C6.11344986 7.48069595 6.11337433 8.44161652 6.11329651 9.43165588 C6.10813522 10.476436 6.10297394 11.52121613 6.09765625 12.59765625 C6.0962413 13.66165146 6.09482635 14.72564667 6.09336853 15.82188416 C6.08775064 19.23545083 6.07519511 22.648953 6.0625 26.0625 C6.05748731 28.37044176 6.052924 30.67838455 6.04882812 32.98632812 C6.0377754 38.65757426 6.02101987 44.32878253 6 50 C3.36 50 0.72 50 -2 50 C-2.0505894 43.20071581 -2.08568667 36.4014799 -2.10986328 29.60205078 C-2.11993892 27.28757921 -2.13359975 24.97312041 -2.15087891 22.65869141 C-2.17505865 19.33753307 -2.1864673 16.0165426 -2.1953125 12.6953125 C-2.20563507 11.65569366 -2.21595764 10.61607483 -2.22659302 9.54495239 C-2.22674408 8.58410736 -2.22689514 7.62326233 -2.22705078 6.63330078 C-2.231492 5.78502716 -2.23593323 4.93675354 -2.24050903 4.06277466 C-2 2 -2 2 0 0 Z " fill="#A3870A" transform="translate(153,293)"/>
<path d="M0 0 C2.375 -0.125 2.375 -0.125 5 0 C7 2 7 2 7.24050903 4.02481079 C7.23606781 4.85531952 7.23162659 5.68582825 7.22705078 6.54150391 C7.22682419 7.95274033 7.22682419 7.95274033 7.22659302 9.39248657 C7.21627045 10.41023163 7.20594788 11.42797668 7.1953125 12.4765625 C7.1924826 13.51694672 7.18965271 14.55733093 7.18673706 15.62924194 C7.17551704 18.96127694 7.15040915 22.29304586 7.125 25.625 C7.11497256 27.88020446 7.1058463 30.13541312 7.09765625 32.390625 C7.07557178 37.92717454 7.04207639 43.46356827 7 49 C4.36 49 1.72 49 -1 49 C-1.02529589 42.34310718 -1.04284396 35.6862267 -1.05493164 29.02929688 C-1.05996926 26.76334164 -1.06679952 24.49738967 -1.07543945 22.23144531 C-1.08752996 18.97980953 -1.09323392 15.72821661 -1.09765625 12.4765625 C-1.10281754 11.45881744 -1.10797882 10.44107239 -1.11329651 9.39248657 C-1.11337204 8.45166229 -1.11344757 7.51083801 -1.11352539 6.54150391 C-1.115746 5.71099518 -1.11796661 4.88048645 -1.12025452 4.02481079 C-1 2 -1 2 0 0 Z " fill="#A78906" transform="translate(167,294)"/>
<path d="M0 0 C0.66 0 1.32 0 2 0 C2 2.97 2 5.94 2 9 C1.34 9 0.68 9 0 9 C-0.10570312 9.58652344 -0.21140625 10.17304688 -0.3203125 10.77734375 C-2.38936602 17.54338658 -10.07313945 23.11253531 -14.9440918 27.92749023 C-18.22209178 31.18067824 -21.32801604 34.52041676 -24.3125 38.04296875 C-25.52725624 39.45174855 -26.78276349 40.82575618 -28.0625 42.17578125 C-32.70595172 47.11798446 -35.62705116 51.65872995 -38 58 C-38.33 58.66 -38.66 59.32 -39 60 C-39.66 60 -40.32 60 -41 60 C-41.02712066 58.56260487 -41.04645067 57.12506137 -41.0625 55.6875 C-41.07410156 54.88699219 -41.08570312 54.08648437 -41.09765625 53.26171875 C-41 51 -41 51 -40 48 C-39.34 48 -38.68 48 -38 48 C-37.731875 47.29875 -37.46375 46.5975 -37.1875 45.875 C-34.86619101 40.25498875 -32.52565881 36.15547264 -28.140625 31.8828125 C-27.67315857 31.42196259 -27.20569214 30.96111267 -26.72406006 30.48629761 C-25.23972332 29.02516232 -23.74558877 27.57460788 -22.25 26.125 C-9.68187349 14.20565718 -9.68187349 14.20565718 0 0 Z " fill="#9E840E" transform="translate(162,121)"/>
<path d="M0 0 C2.5 0.25 2.5 0.25 4.5 2.25 C4.67553419 5.33524939 4.73122797 8.32964202 4.6953125 11.4140625 C4.6924826 12.32127045 4.68965271 13.22847839 4.68673706 14.16317749 C4.67552153 17.06725123 4.65041463 19.97101912 4.625 22.875 C4.61497197 24.84114139 4.60584581 26.8072876 4.59765625 28.7734375 C4.57557772 33.59907659 4.54103865 38.4244864 4.5 43.25 C1.53 43.25 -1.44 43.25 -4.5 43.25 C-4.54934656 37.44760386 -4.58569402 31.64532919 -4.60986328 25.84277344 C-4.61993627 23.86781691 -4.63359521 21.89287534 -4.65087891 19.91796875 C-4.67507039 17.08329582 -4.68646991 14.24881962 -4.6953125 11.4140625 C-4.70563507 10.52756012 -4.71595764 9.64105774 -4.72659302 8.72769165 C-4.7269907 6.56714048 -4.62272534 4.40706282 -4.5 2.25 C-2.5 0.25 -2.5 0.25 0 0 Z " fill="#998213" transform="translate(200.5,299.75)"/>
<path d="M0 0 C0.33 0 0.66 0 1 0 C0.91158724 1.54265031 0.80340305 3.08417123 0.6875 4.625 C0.60048828 5.91277344 0.60048828 5.91277344 0.51171875 7.2265625 C-0.93943883 15.09161504 -6.22027407 19.54974947 -11.75 24.875 C-25.63098456 36.8599695 -25.63098456 36.8599695 -32.3125 52.6875 C-32.22112649 55.47198737 -31.8951052 57.3146844 -31 60 C-34.875 58.25 -34.875 58.25 -36 56 C-36.47173351 50.09784581 -36.74007985 43.38531078 -34 38 C-31.92115038 35.56465344 -29.70605341 33.40085358 -27.36328125 31.21875 C-25.24956269 29.23430017 -23.37177837 27.20931217 -21.5 25 C-18.20335512 21.14877935 -14.64946767 17.61032172 -11.015625 14.078125 C-8.95840608 12.05614943 -8.95840608 12.05614943 -7.359375 9.734375 C-6.68648437 8.87585938 -6.68648437 8.87585938 -6 8 C-5.34 8 -4.68 8 -4 8 C-3.71125 7.236875 -3.4225 6.47375 -3.125 5.6875 C-2 3 -2 3 0 0 Z " fill="#A2860B" transform="translate(163,135)"/>
<path d="M0 0 C4.55555556 0.55555556 4.55555556 0.55555556 6 2 C6.0927833 3.38160115 6.11747043 4.76788038 6.11352539 6.15258789 C6.11344986 7.03342545 6.11337433 7.914263 6.11329651 8.8217926 C6.10813522 9.77907761 6.10297394 10.73636261 6.09765625 11.72265625 C6.0962413 12.69786728 6.09482635 13.67307831 6.09336853 14.67784119 C6.08775133 17.80609143 6.07519593 20.93427123 6.0625 24.0625 C6.05748722 26.17773334 6.05292393 28.29296781 6.04882812 30.40820312 C6.03777631 35.60549296 6.02102146 40.80274145 6 46 C3.36 46 0.72 46 -2 46 C-2.05059881 39.77038023 -2.08569062 33.5408132 -2.10986328 27.31103516 C-2.11993751 25.1905723 -2.13359733 23.07012339 -2.15087891 20.94970703 C-2.17506489 17.90654057 -2.18646869 14.86355734 -2.1953125 11.8203125 C-2.20563507 10.86818878 -2.21595764 9.91606506 -2.22659302 8.93508911 C-2.22674408 8.05432709 -2.22689514 7.17356506 -2.22705078 6.26611328 C-2.231492 5.48889923 -2.23593323 4.71168518 -2.24050903 3.91091919 C-2 2 -2 2 0 0 Z " fill="#A4870A" transform="translate(183,297)"/>
<path d="M0 0 C4.55555556 0.55555556 4.55555556 0.55555556 6 2 C6.0927833 3.38160115 6.11747043 4.76788038 6.11352539 6.15258789 C6.11344986 7.03342545 6.11337433 7.914263 6.11329651 8.8217926 C6.10813522 9.77907761 6.10297394 10.73636261 6.09765625 11.72265625 C6.0962413 12.69786728 6.09482635 13.67307831 6.09336853 14.67784119 C6.08775133 17.80609143 6.07519593 20.93427123 6.0625 24.0625 C6.05748722 26.17773334 6.05292393 28.29296781 6.04882812 30.40820312 C6.03777631 35.60549296 6.02102146 40.80274145 6 46 C3.36 46 0.72 46 -2 46 C-2.05059881 39.77038023 -2.08569062 33.5408132 -2.10986328 27.31103516 C-2.11993751 25.1905723 -2.13359733 23.07012339 -2.15087891 20.94970703 C-2.17506489 17.90654057 -2.18646869 14.86355734 -2.1953125 11.8203125 C-2.20563507 10.86818878 -2.21595764 9.91606506 -2.22659302 8.93508911 C-2.22674408 8.05432709 -2.22689514 7.17356506 -2.22705078 6.26611328 C-2.231492 5.48889923 -2.23593323 4.71168518 -2.24050903 3.91091919 C-2 2 -2 2 0 0 Z " fill="#A3870B" transform="translate(123,297)"/>
<path d="M0 0 C1.5 2.1875 1.5 2.1875 1.5 6.1875 C-0.48 6.1875 -2.46 6.1875 -4.5 6.1875 C-4.5 5.1975 -4.5 4.2075 -4.5 3.1875 C-6.81 3.1875 -9.12 3.1875 -11.5 3.1875 C-11.33473918 5.15969691 -11.33473918 5.15969691 -10.5 7.1875 C-8.55069109 8.21945023 -8.55069109 8.21945023 -6.1875 8.75 C0.6122038 10.80723523 0.6122038 10.80723523 2.5 13.1875 C2.82237869 15.94137894 2.68301413 18.39653452 2.5 21.1875 C1.84 21.1875 1.18 21.1875 0.5 21.1875 C0.21125 21.826875 -0.0775 22.46625 -0.375 23.125 C-1.5 25.1875 -1.5 25.1875 -3.5 26.1875 C-7.29052765 26.71817387 -10.92658704 26.95665319 -14.42578125 25.24609375 C-16.0625 24 -16.0625 24 -18.5 21.1875 C-18.875 18.375 -18.875 18.375 -18.5 16.1875 C-16.85 16.1875 -15.2 16.1875 -13.5 16.1875 C-12.84 17.5075 -12.18 18.8275 -11.5 20.1875 C-8.86 20.1875 -6.22 20.1875 -3.5 20.1875 C-3.5 18.5375 -3.5 16.8875 -3.5 15.1875 C-4.36625 15.084375 -5.2325 14.98125 -6.125 14.875 C-10.62914798 13.95748838 -14.05948697 12.53507671 -17.4375 9.375 C-18.9454272 6.270444 -18.47085251 4.44679057 -17.5 1.1875 C-16.07751495 -0.77688412 -15.01217619 -1.58486614 -12.8125 -2.5625 C-8.0538958 -3.0769437 -3.93456747 -2.85256141 0 0 Z " fill="#E2E9F3" transform="translate(202.5,53.8125)"/>
<path d="M0 0 C1.65 0 3.3 0 5 0 C6.71369681 2.10262091 7.94956944 3.91422664 9.25 6.25 C9.600625 6.83652344 9.95125 7.42304687 10.3125 8.02734375 C12.01858972 10.94738193 13.43560141 13.64680837 14 17 C14.66 17 15.32 17 16 17 C16 11.39 16 5.78 16 0 C17.32 0 18.64 0 20 0 C20 8.91 20 17.82 20 27 C18.35 27 16.7 27 15 27 C15 26.34 15 25.68 15 25 C14.34 25 13.68 25 13 25 C11.99515796 23.04414675 10.99626195 21.08523763 10 19.125 C9.443125 18.03445312 8.88625 16.94390625 8.3125 15.8203125 C7 13 7 13 7 11 C6.34 11 5.68 11 5 11 C5 16.61 5 22.22 5 28 C3.35 28 1.7 28 0 28 C0 18.76 0 9.52 0 0 Z " fill="#EAEFF7" transform="translate(72,52)"/>
<path d="M0 0 C2.5625 0.1875 2.5625 0.1875 4.5625 2.1875 C4.73803419 5.27274939 4.79372797 8.26714202 4.7578125 11.3515625 C4.7549826 12.25877045 4.75215271 13.16597839 4.74923706 14.10067749 C4.73802153 17.00475123 4.71291463 19.90851912 4.6875 22.8125 C4.67747197 24.77864139 4.66834581 26.7447876 4.66015625 28.7109375 C4.63807772 33.53657659 4.60353865 38.3619864 4.5625 43.1875 C1.9225 43.1875 -0.7175 43.1875 -3.4375 43.1875 C-3.46214574 37.22436834 -3.480334 31.26126605 -3.49243164 25.2980957 C-3.49747278 23.26781702 -3.50430557 21.23754198 -3.51293945 19.20727539 C-3.52501467 16.29572653 -3.53073034 13.3842255 -3.53515625 10.47265625 C-3.54031754 9.5591188 -3.54547882 8.64558136 -3.55079651 7.70436096 C-3.55099168 5.53174573 -3.49961805 3.35922704 -3.4375 1.1875 C-2.4375 0.1875 -2.4375 0.1875 0 0 Z " fill="#A1860B" transform="translate(109.4375,299.8125)"/>
<path d="M0 0 C2.90717073 2.21863029 3.83981643 3.51944929 5 7 C5.36928024 12.63152372 5.14319824 16.11058051 2 21 C-1 23 -1 23 -4.5625 22.875 C-8 22 -8 22 -9.4375 19.9375 C-9.623125 19.298125 -9.80875 18.65875 -10 18 C-10.66 18 -11.32 18 -12 18 C-13.57411179 7.04503281 -13.57411179 7.04503281 -11 3 C-7.71455115 -0.52881543 -4.66242961 -0.5828037 0 0 Z " fill="#093F9B" transform="translate(189,17)"/>
<path d="M0 0 C1.65 0 3.3 0 5 0 C5.01981934 0.59538574 5.03963867 1.19077148 5.06005859 1.80419922 C5.15516126 4.49492153 5.26489842 7.18485148 5.375 9.875 C5.4059375 10.81214844 5.436875 11.74929687 5.46875 12.71484375 C5.50742187 13.61074219 5.54609375 14.50664063 5.5859375 15.4296875 C5.6173584 16.25710449 5.6487793 17.08452148 5.68115234 17.93701172 C5.82599137 20.21986085 5.82599137 20.21986085 8 22 C9.98 22 11.96 22 14 22 C14.33 14.74 14.66 7.48 15 0 C16.98 0 18.96 0 21 0 C21.05421223 3.04190863 21.09377548 6.08283999 21.125 9.125 C21.14175781 9.9809375 21.15851563 10.836875 21.17578125 11.71875 C21.21853574 17.27683347 21.16603962 22.40075246 17.4375 26.875 C13.65448451 28.62100715 10.08794801 28.67039433 6 28 C2.50109996 25.88608123 1.29421314 24.88263941 0 21 C-0.08143855 19.37280518 -0.1075302 17.74248281 -0.09765625 16.11328125 C-0.09443359 15.17548828 -0.09121094 14.23769531 -0.08789062 13.27148438 C-0.07532227 11.80678711 -0.07532227 11.80678711 -0.0625 10.3125 C-0.05798828 9.32443359 -0.05347656 8.33636719 -0.04882812 7.31835938 C-0.03704303 4.87884526 -0.02059011 2.43945311 0 0 Z " fill="#E3EAF4" transform="translate(45,52)"/>
<path d="M0 0 C6.27 0 12.54 0 19 0 C19 1.65 19 3.3 19 5 C14.38 5 9.76 5 5 5 C5 6.98 5 8.96 5 11 C9.29 11 13.58 11 18 11 C18 12.32 18 13.64 18 15 C13.71 15 9.42 15 5 15 C5 17.64 5 20.28 5 23 C9.62 23 14.24 23 19 23 C19 24.32 19 25.64 19 27 C12.73 27 6.46 27 0 27 C0 18.09 0 9.18 0 0 Z " fill="#F1F5FA" transform="translate(134,52)"/>
<path d="M0 0 C0.99 0.33 1.98 0.66 3 1 C3 3.64 3 6.28 3 9 C2.505 7.02 2.505 7.02 2 5 C1.34 5 0.68 5 0 5 C-0.2784375 6.2684375 -0.2784375 6.2684375 -0.5625 7.5625 C-2.17132533 11.40969101 -3.99919187 13.27044083 -7.00268555 16.06225586 C-8.86256486 17.86666389 -10.52859823 19.7246042 -12.19921875 21.703125 C-14.75868301 24.65904929 -17.40936239 27.43709427 -20.2265625 30.1484375 C-21.309375 31.19257813 -21.309375 31.19257813 -22.4140625 32.2578125 C-23.88821523 33.66945699 -25.37003168 35.07314157 -26.859375 36.46875 C-31.99811802 41.46014555 -35.20349287 46.40762308 -38 53 C-39.66666667 53 -41.33333333 53 -43 53 C-43.05437607 51.41705218 -43.09296271 49.83355744 -43.125 48.25 C-43.14820312 47.36828125 -43.17140625 46.4865625 -43.1953125 45.578125 C-43 43 -43 43 -41 39 C-41 41.97 -41 44.94 -41 48 C-40.71624512 47.42894531 -40.43249023 46.85789063 -40.14013672 46.26953125 C-35.51647993 37.76267898 -29.02608229 31.63779956 -22.125 25 C-9.62790755 13.63307654 -9.62790755 13.63307654 0 0 Z " fill="#103F87" transform="translate(162,116)"/>
<path d="M0 0 C2.31 0 4.62 0 7 0 C8.42635741 6.31672565 9.75297849 12.64549677 11 19 C11.66 19 12.32 19 13 19 C13.0825 17.906875 13.165 16.81375 13.25 15.6875 C13.91504378 10.15870322 15.96459272 5.15005376 18 0 C19.98 0 21.96 0 24 0 C23.79503906 0.58007812 23.59007812 1.16015625 23.37890625 1.7578125 C21.85990187 6.1621984 20.5952849 10.35677777 20 15 C19.34 15 18.68 15 18 15 C17.86722656 15.68707031 17.73445313 16.37414062 17.59765625 17.08203125 C17.42105469 17.98308594 17.24445313 18.88414063 17.0625 19.8125 C16.88847656 20.70582031 16.71445313 21.59914063 16.53515625 22.51953125 C16 25 16 25 15 28 C13.02 28 11.04 28 9 28 C7.49223384 23.89864435 5.99512424 19.79347933 4.5 15.6875 C4.07074219 14.52025391 3.64148438 13.35300781 3.19921875 12.15039062 C2.79316406 11.03212891 2.38710937 9.91386719 1.96875 8.76171875 C1.59169922 7.73006592 1.21464844 6.69841309 0.82617188 5.63549805 C0 3 0 3 0 0 Z " fill="#DFE7F2" transform="translate(106,52)"/>
<path d="M0 0 C0.495 0.99 0.495 0.99 1 2 C1.66 2 2.32 2 3 2 C3 4.31 3 6.62 3 9 C2.34 8.34 1.68 7.68 1 7 C0.443125 7.886875 -0.11375 8.77375 -0.6875 9.6875 C-2.70588279 12.90196148 -5.28954539 15.35417053 -8 18 C-9.10258095 19.08881338 -10.20408386 20.17871918 -11.3046875 21.26953125 C-11.88492676 21.84453369 -12.46516602 22.41953613 -13.06298828 23.01196289 C-18.58491883 28.49892568 -24.06280126 33.97014252 -29 40 C-29.69351563 40.72445312 -30.38703125 41.44890625 -31.1015625 42.1953125 C-33.59223779 45.87495212 -33.8767276 48.96154362 -34.25 53.3125 C-34.32734375 54.05306641 -34.4046875 54.79363281 -34.484375 55.55664062 C-34.67151741 57.36958268 -34.83787704 59.18464954 -35 61 C-38.875 57.3359375 -38.875 57.3359375 -40 54.3125 C-40 45.03966805 -33.14303911 37.30615088 -27.015625 30.9375 C-25.66986717 29.6021744 -24.31694286 28.27403341 -22.95703125 26.953125 C-21.09882382 25.09862657 -19.38900629 23.1854501 -17.6875 21.1875 C-13.88962407 16.74056444 -9.68298045 12.73993389 -5.453125 8.7109375 C-2.95632689 5.95173704 -1.49174091 3.39122434 0 0 Z " fill="#1E457A" transform="translate(162,130)"/>
<path d="M0 0 C2.46800047 1.15173355 4.04783565 2.04783565 6 4 C6.69749628 14.28807013 4.06643029 19.50362634 -2.55078125 27.29296875 C-5.34232685 30.37836126 -8.28662054 33.25879241 -11.27734375 36.1484375 C-13.78972458 38.84881962 -15.3028899 41.73632674 -17 45 C-17.66 45.66 -18.32 46.32 -19 47 C-19.11003792 45.48086534 -19.18649757 43.95929036 -19.25 42.4375 C-19.29640625 41.59058594 -19.3428125 40.74367187 -19.390625 39.87109375 C-18.39565022 32.55802911 -13.00200991 27.56880574 -8.06640625 22.5390625 C-2.86811427 17.09597561 0.56137934 11.74896501 1 4 C0.65340705 1.67841935 0.65340705 1.67841935 0 0 Z " fill="#9C8310" transform="translate(175,143)"/>
<path d="M0 0 C6.6 0 13.2 0 20 0 C20 1.65 20 3.3 20 5 C17.69 5 15.38 5 13 5 C13 12.59 13 20.18 13 28 C11.02 28 9.04 28 7 28 C7 20.41 7 12.82 7 5 C4.69 5 2.38 5 0 5 C0 3.35 0 1.7 0 0 Z " fill="#DAE3F0" transform="translate(218,52)"/>
<path d="M0 0 C1.98 0 3.96 0 6 0 C7.65 2.97 9.3 5.94 11 9 C13.94577422 5.34578014 13.94577422 5.34578014 15.3125 2.25 C15.869375 1.5075 16.42625 0.765 17 0 C20.1875 -0.3125 20.1875 -0.3125 23 0 C21.97724468 2.17891351 20.90246409 4.14048276 19.52734375 6.12109375 C14.84490806 12.94341405 14.0256703 18.81117505 14 27 C12.35 27 10.7 27 9 27 C8.99742187 26.23816406 8.99484375 25.47632812 8.9921875 24.69140625 C8.73122136 17.72361026 7.65242081 13.53475186 3.43359375 7.98046875 C1.62738485 5.48524283 0.76123357 2.96881094 0 0 Z " fill="#EAEFF7" transform="translate(241,52)"/>
<path d="M0 0 C2.95857409 -0.05379226 5.91617721 -0.09357093 8.875 -0.125 C9.71675781 -0.14175781 10.55851563 -0.15851563 11.42578125 -0.17578125 C12.23144531 -0.18222656 13.03710938 -0.18867188 13.8671875 -0.1953125 C14.98262939 -0.21102295 14.98262939 -0.21102295 16.12060547 -0.22705078 C18 0 18 0 20 2 C19.70764733 4.33882138 19.37400786 6.67284 19 9 C19.33 9.66 19.66 10.32 20 11 C19.01 10.67 18.02 10.34 17 10 C16.67 9.34 16.34 8.68 16 8 C15.01 7.67 14.02 7.34 13 7 C12.67 8.65 12.34 10.3 12 12 C8.04 12 4.08 12 0 12 C0 8.04 0 4.08 0 0 Z " fill="#14479D" transform="translate(204,154)"/>
<path d="M0 0 C0.66 0 1.32 0 2 0 C2.66 1.98 3.32 3.96 4 6 C4.66 4.02 5.32 2.04 6 0 C6.99 0 7.98 0 9 0 C9.66 1.98 10.32 3.96 11 6 C11.66 4.02 12.32 2.04 13 0 C14.32 0 15.64 0 17 0 C17 3.3 17 6.6 17 10 C19.31 10 21.62 10 24 10 C24 6.7 24 3.4 24 0 C26.64 0 29.28 0 32 0 C32 0.33 32 0.66 32 1 C30.35 1.33 28.7 1.66 27 2 C26.67 2.99 26.34 3.98 26 5 C27.98 5 29.96 5 32 5 C32 5.33 32 5.66 32 6 C30.02 6 28.04 6 26 6 C26 7.32 26 8.64 26 10 C28.64 10 31.28 10 34 10 C34 10.66 34 11.32 34 12 C28.06 12 22.12 12 16 12 C15.34 10.35 14.68 8.7 14 7 C13.67 8.32 13.34 9.64 13 11 C12.01 11 11.02 11 10 11 C8.3125 9 8.3125 9 7 7 C6.67 8.32 6.34 9.64 6 11 C4.68 11 3.36 11 2 11 C1.34 7.37 0.68 3.74 0 0 Z " fill="#90A9D0" transform="translate(209,120)"/>
<path d="M0 0 C1.98 0 3.96 0 6 0 C6 9.24 6 18.48 6 28 C4.02 28 2.04 28 0 28 C0 18.76 0 9.52 0 0 Z " fill="#DAE4F2" transform="translate(209,52)"/>
<path d="M0 0 C1.98 0 3.96 0 6 0 C6 9.24 6 18.48 6 28 C4.02 28 2.04 28 0 28 C0 18.76 0 9.52 0 0 Z " fill="#D4DEED" transform="translate(98,52)"/>
<path d="M0 0 C0.99 0.33 1.98 0.66 3 1 C1.75187882 12.5128419 -2.75162341 19.12595816 -10.97265625 27.015625 C-15.05048824 31.00702896 -18.8341757 35.25126355 -22 40 C-23.32 40 -24.64 40 -26 40 C-22.93296388 33.86592776 -18.98886163 28.81613859 -14.0625 24.0625 C-6.65361959 16.84359088 -1.50776212 10.38680574 0 0 Z " fill="#114086" transform="translate(181,151)"/>
<path d="M0 0 C1.32 0.66 2.64 1.32 4 2 C4 5.3 4 8.6 4 12 C3.67 12 3.34 12 3 12 C2.67 9.36 2.34 6.72 2 4 C1.34 6.31 0.68 8.62 0 11 C-0.66 11 -1.32 11 -2 11 C-2.27473145 11.59167969 -2.54946289 12.18335938 -2.83251953 12.79296875 C-3.95039303 14.90622187 -5.12172129 16.50984114 -6.6796875 18.3125 C-7.19660156 18.91320312 -7.71351563 19.51390625 -8.24609375 20.1328125 C-9.05240234 21.05707031 -9.05240234 21.05707031 -9.875 22 C-10.66970703 22.92425781 -10.66970703 22.92425781 -11.48046875 23.8671875 C-12.97207359 25.59197126 -14.48239876 27.29809604 -16 29 C-16.70382813 29.804375 -17.40765625 30.60875 -18.1328125 31.4375 C-20 33 -20 33 -24 33 C-23.52174102 28.70563292 -21.04660355 26.81061641 -18 23.9375 C-7.00834089 13.336161 -7.00834089 13.336161 0 0 Z " fill="#174280" transform="translate(184,167)"/>
<path d="M0 0 C3 0.25 3 0.25 5 2.25 C5.33 1.59 5.66 0.93 6 0.25 C8.64 0.25 11.28 0.25 14 0.25 C14 0.58 14 0.91 14 1.25 C12.02 1.25 10.04 1.25 8 1.25 C8 2.57 8 3.89 8 5.25 C9.98 5.25 11.96 5.25 14 5.25 C14 5.58 14 5.91 14 6.25 C12.02 6.25 10.04 6.25 8 6.25 C8 7.57 8 8.89 8 10.25 C10.31 10.25 12.62 10.25 15 10.25 C15 10.91 15 11.57 15 12.25 C11 12.25 7 12.25 3 12.25 C2.154375 12.311875 1.30875 12.37375 0.4375 12.4375 C-2 12.25 -2 12.25 -3.8125 11.1875 C-5.646921 8.19449731 -5.31107576 5.67183337 -5 2.25 C-3 0.25 -3 0.25 0 0 Z " fill="#4970B3" transform="translate(245,153.75)"/>
<path d="M0 0 C3.0625 0.25 3.0625 0.25 6.0625 2.25 C6.3925 1.59 6.7225 0.93 7.0625 0.25 C10.0325 0.25 13.0025 0.25 16.0625 0.25 C16.0625 0.91 16.0625 1.57 16.0625 2.25 C13.7525 2.25 11.4425 2.25 9.0625 2.25 C9.0625 3.24 9.0625 4.23 9.0625 5.25 C11.0425 5.25 13.0225 5.25 15.0625 5.25 C15.0625 5.58 15.0625 5.91 15.0625 6.25 C13.0825 6.25 11.1025 6.25 9.0625 6.25 C9.0625 7.57 9.0625 8.89 9.0625 10.25 C11.3725 10.25 13.6825 10.25 16.0625 10.25 C16.0625 10.58 16.0625 10.91 16.0625 11.25 C12.39583333 11.25 8.72916667 11.25 5.0625 11.25 C4.299375 11.476875 3.53625 11.70375 2.75 11.9375 C0.0625 12.25 0.0625 12.25 -2.75 11.25 C-4.9375 9.25 -4.9375 9.25 -5.375 5.6875 C-4.82845679 1.39323193 -4.37441573 0.3722907 0 0 Z " fill="#1B4DA0" transform="translate(259.9375,119.75)"/>
<path d="M0 0 C4.33333333 0 8.66666667 0 13 0 C13.33 2.97 13.66 5.94 14 9 C15.32 9 16.64 9 18 9 C18.33 6.03 18.66 3.06 19 0 C19.33 0 19.66 0 20 0 C20.05395478 1.62463842 20.09277195 3.24978541 20.125 4.875 C20.14820313 5.77992188 20.17140625 6.68484375 20.1953125 7.6171875 C20 10 20 10 18 12 C15.38419521 11.6730244 13.35921863 11.17960932 11 10 C11 10.66 11 11.32 11 12 C9.68 12 8.36 12 7 12 C6.731875 11.195625 6.46375 10.39125 6.1875 9.5625 C5.795625 8.716875 5.40375 7.87125 5 7 C4.01 6.67 3.02 6.34 2 6 C2 7.98 2 9.96 2 12 C1.34 12 0.68 12 0 12 C0 8.04 0 4.08 0 0 Z " fill="#BDCEE6" transform="translate(194,137)"/>
<path d="M0 0 C0.33 0.99 0.66 1.98 1 3 C0.06027344 3.8353125 0.06027344 3.8353125 -0.8984375 4.6875 C-6.07225285 9.51857049 -9.34625476 12.87417687 -10 20 C-10.10570313 20.89847656 -10.21140625 21.79695313 -10.3203125 22.72265625 C-10.58628232 25.14707348 -10.81066794 27.56857774 -11 30 C-13.48607843 27.91490196 -14.86033887 26.37533929 -16 23.3125 C-16 15.99130266 -11.54973743 9.4830169 -7 4 C-6.01 4 -5.02 4 -4 4 C-1.81222534 2.0624994 -1.81222534 2.0624994 0 0 Z " fill="#154282" transform="translate(138,161)"/>
<path d="M0 0 C3.0625 0.3125 3.0625 0.3125 4.9375 1.4375 C6.62820175 4.25533625 6.59794229 6.09984627 6.0625 9.3125 C3.875 11.3125 3.875 11.3125 1.0625 12.3125 C-1.36778072 11.64969617 -3.1385972 11.1114028 -4.9375 9.3125 C-5.125 5.875 -5.125 5.875 -4.9375 2.3125 C-2.9375 0.3125 -2.9375 0.3125 0 0 Z " fill="#16499F" transform="translate(202.9375,119.6875)"/>
<path d="M0 0 C1.97909398 -0.02686553 3.95828971 -0.04633375 5.9375 -0.0625 C7.03964844 -0.07410156 8.14179687 -0.08570312 9.27734375 -0.09765625 C12 0 12 0 13 1 C13.125 4 13.125 4 13 7 C12 8 12 8 9.27734375 8.09765625 C7.62412109 8.08025391 7.62412109 8.08025391 5.9375 8.0625 C4.83277344 8.05347656 3.72804687 8.04445313 2.58984375 8.03515625 C1.30787109 8.01775391 1.30787109 8.01775391 0 8 C0 5.36 0 2.72 0 0 Z " fill="#093F9B" transform="translate(51,31)"/>
<path d="M0 0 C1.79158489 -0.02696365 3.58328473 -0.04637917 5.375 -0.0625 C6.37273437 -0.07410156 7.37046875 -0.08570312 8.3984375 -0.09765625 C11 0 11 0 13 1 C13.125 3.375 13.125 3.375 13 6 C11 8 11 8 8.3984375 8.1953125 C7.40070313 8.17210937 6.40296875 8.14890625 5.375 8.125 C3.87066406 8.09792969 3.87066406 8.09792969 2.3359375 8.0703125 C1.56507812 8.04710937 0.79421875 8.02390625 0 8 C0 5.36 0 2.72 0 0 Z " fill="#073D9A" transform="translate(115,31)"/>
<path d="M0 0 C3.375 -0.125 3.375 -0.125 7 0 C9 2 9 2 9.23046875 3.91015625 C9.11111111 9.88888889 9.11111111 9.88888889 8 11 C5.32941149 11.14115161 2.67567762 11.04247107 0 11 C0 7.37 0 3.74 0 0 Z " fill="#A1B5D5" transform="translate(244,120)"/>
<path d="M0 0 C1.62490954 -0.02698189 3.24994633 -0.04638757 4.875 -0.0625 C5.77992187 -0.07410156 6.68484375 -0.08570312 7.6171875 -0.09765625 C10 0 10 0 12 1 C12 2.98 12 4.96 12 7 C9.47524538 8.26237731 7.68799534 8.09856404 4.875 8.0625 C3.96492188 8.05347656 3.05484375 8.04445313 2.1171875 8.03515625 C1.41851562 8.02355469 0.71984375 8.01195312 0 8 C0 5.36 0 2.72 0 0 Z " fill="#11459D" transform="translate(114,17)"/>
<path d="M0 0 C1.62490954 -0.02698189 3.24994633 -0.04638757 4.875 -0.0625 C5.77992187 -0.07410156 6.68484375 -0.08570312 7.6171875 -0.09765625 C10 0 10 0 12 1 C12 2.98 12 4.96 12 7 C9.47524538 8.26237731 7.68799534 8.09856404 4.875 8.0625 C3.96492188 8.05347656 3.05484375 8.04445313 2.1171875 8.03515625 C1.41851562 8.02355469 0.71984375 8.01195312 0 8 C0 5.36 0 2.72 0 0 Z " fill="#0F439C" transform="translate(51,17)"/>
<path d="M0 0 C6.0546875 -0.1953125 6.0546875 -0.1953125 8 0 C8.66 0.66 9.32 1.32 10 2 C9.70764733 4.33882138 9.37400786 6.67284 9 9 C9.33 9.66 9.66 10.32 10 11 C9.01 10.67 8.02 10.34 7 10 C6.67 9.34 6.34 8.68 6 8 C5.01 7.67 4.02 7.34 3 7 C2.67 8.65 2.34 10.3 2 12 C1.34 12 0.68 12 0 12 C0 8.04 0 4.08 0 0 Z " fill="#86A1CC" transform="translate(214,154)"/>
<path d="M0 0 C0 3.63 0 7.26 0 11 C-2.97 10.67 -5.94 10.34 -9 10 C-9 7.36 -9 4.72 -9 2 C-3.375 0 -3.375 0 0 0 Z " fill="#2957A5" transform="translate(244,120)"/>
<path d="M0 0 C0.33 0.66 0.66 1.32 1 2 C-9.53751996 15.16019159 -9.53751996 15.16019159 -14 19 C-15.32 19 -16.64 19 -18 19 C-17.5248459 14.72361306 -15.12116265 12.76648508 -12 10 C-11.21625 9.54625 -10.4325 9.0925 -9.625 8.625 C-5.86885839 6.29976948 -3.03078206 3.18799842 0 0 Z " fill="#124186" transform="translate(178,181)"/>
<path d="M0 0 C0 3.98220896 -1.32208355 4.80602572 -4 7.6875 C-4.81339844 8.56535156 -5.62679687 9.44320312 -6.46484375 10.34765625 C-9.91739871 13.95980543 -13.42319993 17.51091438 -17 21 C-17.66 20.34 -18.32 19.68 -19 19 C-12.73 12.73 -6.46 6.46 0 0 Z M-22 20 C-21.01 20.33 -20.02 20.66 -19 21 C-21.97 23.475 -21.97 23.475 -25 26 C-24.42655063 23.13275314 -24.1385485 22.1385485 -22 20 Z " fill="#0A3C8C" transform="translate(157,141)"/>
<path d="M0 0 C3.3 0 6.6 0 10 0 C10.33 1.65 10.66 3.3 11 5 C7.17010894 6.80230168 4.21878192 7.19622241 0 7 C0 4.69 0 2.38 0 0 Z " fill="#1C4EA2" transform="translate(163,57)"/>
<path d="M0 0 C0.99 0.33 1.98 0.66 3 1 C1.18319548 13.20465154 1.18319548 13.20465154 -2 17 C-4 18.125 -4 18.125 -6 19 C-7.70921589 20.5412312 -7.70921589 20.5412312 -9 22 C-9.66 21.67 -10.32 21.34 -11 21 C-10.45730469 20.40574219 -9.91460937 19.81148437 -9.35546875 19.19921875 C-4.08964044 13.09844829 -1.44675134 7.92699169 0 0 Z " fill="#214777" transform="translate(181,151)"/>
<path d="M0 0 C0.33 2.97 0.66 5.94 1 9 C2.32 9 3.64 9 5 9 C5.33 6.03 5.66 3.06 6 0 C6.33 0 6.66 0 7 0 C7.05395478 1.62463842 7.09277195 3.24978541 7.125 4.875 C7.14820313 5.77992188 7.17140625 6.68484375 7.1953125 7.6171875 C7 10 7 10 5 12 C2.38419521 11.6730244 0.35921863 11.17960932 -2 10 C-2 10.66 -2 11.32 -2 12 C-3.32 12 -4.64 12 -6 12 C-5.67 11.01 -5.34 10.02 -5 9 C-5.33 8.01 -5.66 7.02 -6 6 C-5.1875 3.375 -5.1875 3.375 -4 1 C-2 0 -2 0 0 0 Z " fill="#7291C3" transform="translate(207,137)"/>
<path d="M0 0 C0.99 0 1.98 0 3 0 C3 1.32 3 2.64 3 4 C4.65 4 6.3 4 8 4 C8 2.68 8 1.36 8 0 C8.66 0 9.32 0 10 0 C10 3.96 10 7.92 10 12 C9.34 12 8.68 12 8 12 C8 10.02 8 8.04 8 6 C6.02 6 4.04 6 2 6 C2 7.98 2 9.96 2 12 C1.34 12 0.68 12 0 12 C0 8.04 0 4.08 0 0 Z " fill="#9EB4D7" transform="translate(226,137)"/>
<path d="M0 0 C0.66 0 1.32 0 2 0 C2.99 3.96 3.98 7.92 5 12 C2.03 12 -0.94 12 -4 12 C-2.68 8.04 -1.36 4.08 0 0 Z " fill="#2A59A7" transform="translate(88,20)"/>
<path d="M0 0 C0.33 0 0.66 0 1 0 C1 2.97 1 5.94 1 9 C1.99 7.02 2.98 5.04 4 3 C4.99 3 5.98 3 7 3 C8 6 8 6 7.22265625 8.04296875 C6.83980469 8.75066406 6.45695312 9.45835937 6.0625 10.1875 C5.68222656 10.90292969 5.30195312 11.61835938 4.91015625 12.35546875 C4.60980469 12.89816406 4.30945313 13.44085938 4 14 C2.33333333 14 0.66666667 14 -1 14 C-1.027193 12.41676312 -1.04648306 10.83338938 -1.0625 9.25 C-1.07410156 8.36828125 -1.08570312 7.4865625 -1.09765625 6.578125 C-1.00826198 4.2181162 -0.66912821 2.25501476 0 0 Z " fill="#395364" transform="translate(120,155)"/>
<path d="M0 0 C1.65 0 3.3 0 5 0 C4.02885254 0.67337402 4.02885254 0.67337402 3.03808594 1.36035156 C-0.07585921 5.39341037 0.39695547 9.2691041 0.390625 14.234375 C0.37408875 15.22753723 0.35755249 16.22069946 0.34051514 17.24395752 C0.29197231 20.41270086 0.27064988 23.58096406 0.25 26.75 C0.22184563 28.89976382 0.19191896 31.04950521 0.16015625 33.19921875 C0.08621204 38.46605848 0.03460634 43.73276284 0 49 C-0.33 49 -0.66 49 -1 49 C-1.02529589 42.34310718 -1.04284396 35.6862267 -1.05493164 29.02929688 C-1.05996926 26.76334164 -1.06679952 24.49738967 -1.07543945 22.23144531 C-1.08752996 18.97980953 -1.09323392 15.72821661 -1.09765625 12.4765625 C-1.10281754 11.45881744 -1.10797882 10.44107239 -1.11329651 9.39248657 C-1.11337204 8.45166229 -1.11344757 7.51083801 -1.11352539 6.54150391 C-1.115746 5.71099518 -1.11796661 4.88048645 -1.12025452 4.02481079 C-1 2 -1 2 0 0 Z " fill="#897B24" transform="translate(167,294)"/>
<path d="M0 0 C2.31 0.33 4.62 0.66 7 1 C7 1.99 7 2.98 7 4 C8.98 4 10.96 4 13 4 C13 4.33 13 4.66 13 5 C11.35 5 9.7 5 8 5 C8 5.66 8 6.32 8 7 C1.25 6.25 1.25 6.25 -1 4 C-0.625 1.875 -0.625 1.875 0 0 Z " fill="#15499F" transform="translate(191,56)"/>
<path d="M0 0 C2.375 -0.1875 2.375 -0.1875 5 0 C5.66 0.99 6.32 1.98 7 3 C5.02 2.34 3.04 1.68 1 1 C1 1.99 1 2.98 1 4 C2.98 4.66 4.96 5.32 7 6 C7.042721 7.66611905 7.04063832 9.33382885 7 11 C6 12 6 12 2.9375 12.0625 C1.968125 12.041875 0.99875 12.02125 0 12 C-0.66 10.68 -1.32 9.36 -2 8 C0.31 8.33 2.62 8.66 5 9 C3.04783565 7.04783565 1.46800047 6.15173355 -1 5 C-0.67 3.35 -0.34 1.7 0 0 Z " fill="#98B0D4" transform="translate(195,154)"/>
<path d="M0 0 C0.99 0.103125 1.98 0.20625 3 0.3125 C3.66 1.3025 4.32 2.2925 5 3.3125 C4.030625 3.126875 3.06125 2.94125 2.0625 2.75 C1.051875 2.605625 0.04125 2.46125 -1 2.3125 C-2.35618499 3.43784105 -2.35618499 3.43784105 -2.0625 6.375 C-2.041875 7.344375 -2.02125 8.31375 -2 9.3125 C-0.35 9.6425 1.3 9.9725 3 10.3125 C3 9.3225 3 8.3325 3 7.3125 C2.01 6.9825 1.02 6.6525 0 6.3125 C1.65 6.3125 3.3 6.3125 5 6.3125 C5 7.9625 5 9.6125 5 11.3125 C1.86022274 12.29928714 0.32881171 12.42941083 -2.8125 11.3125 C-5 9.3125 -5 9.3125 -5.4375 5.75 C-4.88444775 1.40458947 -4.39962436 0.4582942 0 0 Z " fill="#ABBEDC" transform="translate(260,119.6875)"/>
<path d="M0 0 C3.0625 0.3125 3.0625 0.3125 4.9375 1.4375 C6.62820175 4.25533625 6.59794229 6.09984627 6.0625 9.3125 C3.875 11.3125 3.875 11.3125 1.0625 12.3125 C-1.36778072 11.64969617 -3.1385972 11.1114028 -4.9375 9.3125 C-5.125 5.875 -5.125 5.875 -4.9375 2.3125 C-2.9375 0.3125 -2.9375 0.3125 0 0 Z M-2.75 2.4375 C-4.22149746 4.32603208 -4.22149746 4.32603208 -3.625 7 C-3.398125 7.763125 -3.17125 8.52625 -2.9375 9.3125 C-0.54030568 9.99208603 -0.54030568 9.99208603 2.0625 10.3125 C2.7225 9.6525 3.3825 8.9925 4.0625 8.3125 C3.74051034 5.21323181 3.74051034 5.21323181 3.0625 2.3125 C0.07235002 1.16982642 0.07235002 1.16982642 -2.75 2.4375 Z " fill="#A4B9D9" transform="translate(202.9375,119.6875)"/>
<path d="M0 0 C2.64 0 5.28 0 8 0 C8 0.33 8 0.66 8 1 C6.02 1 4.04 1 2 1 C2 2.32 2 3.64 2 5 C3.98 5 5.96 5 8 5 C8 5.33 8 5.66 8 6 C6.02 6 4.04 6 2 6 C2 7.32 2 8.64 2 10 C4.31 10 6.62 10 9 10 C9 10.66 9 11.32 9 12 C6.03 12 3.06 12 0 12 C0 8.04 0 4.08 0 0 Z " fill="#A4B9DA" transform="translate(204,154)"/>
<path d="M0 0 C0.66 0 1.32 0 2 0 C3.38938077 1.96147874 4.7260411 3.96166576 6 6 C6.33 4.02 6.66 2.04 7 0 C7.33 0 7.66 0 8 0 C8 3.63 8 7.26 8 11 C7.34 11 6.68 11 6 11 C4.375 8.5 4.375 8.5 3 6 C2.67 7.65 2.34 9.3 2 11 C1.34 11 0.68 11 0 11 C0 7.37 0 3.74 0 0 Z " fill="#A2B7D9" transform="translate(187,120)"/>
<path d="M0 0 C2.97 0 5.94 0 9 0 C9 0.66 9 1.32 9 2 C6.69 2 4.38 2 2 2 C2 2.99 2 3.98 2 5 C3.98 5 5.96 5 8 5 C8 5.33 8 5.66 8 6 C6.02 6 4.04 6 2 6 C2 7.32 2 8.64 2 10 C4.31 10 6.62 10 9 10 C9 10.33 9 10.66 9 11 C6.03 11 3.06 11 0 11 C0 7.37 0 3.74 0 0 Z " fill="#B3C5E2" transform="translate(267,120)"/>
<path d="M0 0 C0.94875 0.04125 1.8975 0.0825 2.875 0.125 C3.205 1.115 3.535 2.105 3.875 3.125 C3.215 3.125 2.555 3.125 1.875 3.125 C1.875 2.465 1.875 1.805 1.875 1.125 C-0.105 2.115 -0.105 2.115 -2.125 3.125 C-2.125 5.105 -2.125 7.085 -2.125 9.125 C1.34 8.63 1.34 8.63 4.875 8.125 C4.215 9.445 3.555 10.765 2.875 12.125 C0.17186424 12.34417317 -1.56458382 12.45351983 -3.9375 11.0625 C-5.771921 8.06949731 -5.43607576 5.54683337 -5.125 2.125 C-3.125 0.125 -3.125 0.125 0 0 Z " fill="#9AB1D5" transform="translate(245.125,153.875)"/>
<path d="M0 0 C0.66 0 1.32 0 2 0 C2.33 1.32 2.66 2.64 3 4 C4.32 2.68 5.64 1.36 7 0 C7.66 0.33 8.32 0.66 9 1 C8.484375 1.391875 7.96875 1.78375 7.4375 2.1875 C6.963125 2.785625 6.48875 3.38375 6 4 C6.23043864 6.65466049 6.23043864 6.65466049 7 9 C7.66 9 8.32 9 9 9 C9 9.66 9 10.32 9 11 C6.00667261 10.0022242 5.05233685 9.2477975 3 7 C2.67 8.32 2.34 9.64 2 11 C1.34 11 0.68 11 0 11 C0 7.37 0 3.74 0 0 Z " fill="#A6BAD7" transform="translate(176,120)"/>
<path d="M0 0 C0 1.98 0 3.96 0 6 C-2.375 6.125 -2.375 6.125 -5 6 C-5.66 5.34 -6.32 4.68 -7 4 C-7 2.68 -7 1.36 -7 0 C-4.3333581 -1.33332095 -2.83319697 -0.67102033 0 0 Z " fill="#1D457B" transform="translate(189,273)"/>
<path d="M0 0 C0.66 0 1.32 0 2 0 C2 1.32 2 2.64 2 4 C2.66 4 3.32 4 4 4 C4 4.99 4 5.98 4 7 C4.66 7 5.32 7 6 7 C6.66 4.69 7.32 2.38 8 0 C8.66 0 9.32 0 10 0 C9.21681311 3.91593446 7.60820142 7.36406635 6 11 C5.01 11 4.02 11 3 11 C2.01 7.37 1.02 3.74 0 0 Z " fill="#8CA6CE" transform="translate(225,154)"/>
<path d="M0 0 C1.65 0 3.3 0 5 0 C5.625 2.875 5.625 2.875 6 6 C5.34 6.66 4.68 7.32 4 8 C2.68 8 1.36 8 0 8 C0 5.36 0 2.72 0 0 Z " fill="#0D429A" transform="translate(246,122)"/>
<path d="M0 0 C0 3.63 0 7.26 0 11 C-0.66 11 -1.32 11 -2 11 C-2 10.34 -2 9.68 -2 9 C-2.66 9 -3.32 9 -4 9 C-4.66 7.35 -5.32 5.7 -6 4 C-2.25 0 -2.25 0 0 0 Z " fill="#1F50A3" transform="translate(187,120)"/>
<path d="M0 0 C1.32 0 2.64 0 4 0 C4.38133299 1.9914056 4.71325582 3.99279077 5 6 C4 7 4 7 1.4375 7.0625 C0.2309375 7.0315625 0.2309375 7.0315625 -1 7 C-1.625 4.625 -1.625 4.625 -2 2 C-1.34 1.34 -0.68 0.68 0 0 Z " fill="#073B8E" transform="translate(107,274)"/>
<path d="M0 0 C4.875 0.875 4.875 0.875 6 2 C6.04063832 3.66617115 6.042721 5.33388095 6 7 C3.625 7.125 3.625 7.125 1 7 C0.34 6.34 -0.32 5.68 -1 5 C-0.625 2.375 -0.625 2.375 0 0 Z " fill="#1F477B" transform="translate(153,267)"/>
<path d="M0 0 C2.125 0.375 2.125 0.375 4 1 C4.38218767 2.65614657 4.71395102 4.32457024 5 6 C4 7 4 7 1.4375 7.0625 C0.2309375 7.0315625 0.2309375 7.0315625 -1 7 C-1.625 4.625 -1.625 4.625 -2 2 C-1.34 1.34 -0.68 0.68 0 0 Z " fill="#19447F" transform="translate(200,275)"/>
<path d="M0 0 C1.67542976 0.28604898 3.34385343 0.61781233 5 1 C5 2.65 5 4.3 5 6 C2.625 6.625 2.625 6.625 0 7 C-0.66 6.34 -1.32 5.68 -2 5 C-1.46428571 1.46428571 -1.46428571 1.46428571 0 0 Z " fill="#1A447E" transform="translate(169,268)"/>
<path d="M0 0 C1.2065625 0.0309375 1.2065625 0.0309375 2.4375 0.0625 C3.0625 2.4375 3.0625 2.4375 3.4375 5.0625 C2.7775 5.7225 2.1175 6.3825 1.4375 7.0625 C-0.6875 6.6875 -0.6875 6.6875 -2.5625 6.0625 C-2.94468767 4.40635343 -3.27645102 2.73792976 -3.5625 1.0625 C-2.5625 0.0625 -2.5625 0.0625 0 0 Z " fill="#18437F" transform="translate(140.5625,266.9375)"/>
<path d="M0 0 C0.33 0.99 0.66 1.98 1 3 C0.50628906 3.48210937 0.01257813 3.96421875 -0.49609375 4.4609375 C-1.45708984 5.40839844 -1.45708984 5.40839844 -2.4375 6.375 C-3.07558594 7.00148437 -3.71367187 7.62796875 -4.37109375 8.2734375 C-6.07882176 9.91723061 -6.07882176 9.91723061 -7 12 C-8.32 12 -9.64 12 -11 12 C-8.75858117 7.51716234 -6.76843196 3.90737278 -2 2 C-1.34 1.34 -0.68 0.68 0 0 Z " fill="#18437F" transform="translate(166,179)"/>
<path d="M0 0 C1.66611905 -0.042721 3.33382885 -0.04063832 5 0 C6 1 6 1 6.0625 3.5625 C6.041875 4.366875 6.02125 5.17125 6 6 C4.02 6 2.04 6 0 6 C-1.125 2.25 -1.125 2.25 0 0 Z " fill="#18437F" transform="translate(122,270)"/>
<path d="M0 0 C1.03115279 3.26913624 0.9638984 5.86041348 0.5625 9.25 C0.46066406 10.14203125 0.35882813 11.0340625 0.25390625 11.953125 C0.17011719 12.62859375 0.08632812 13.3040625 0 14 C-2.7321625 11.70850887 -3.90028101 10.35613925 -4.875 6.875 C-4.91625 5.92625 -4.9575 4.9775 -5 4 C-4.34 3.34 -3.68 2.68 -3 2 C-2.67 3.65 -2.34 5.3 -2 7 C-1.34 4.69 -0.68 2.38 0 0 Z " fill="#4B5C52" transform="translate(127,177)"/>
<path d="M0 0 C0.33 0 0.66 0 1 0 C1.5 2.5625 1.5 2.5625 1 6 C-1.35429938 8.74942655 -3.95951141 11.03501885 -7 13 C-7.99 13 -8.98 13 -10 13 C-8.71937515 11.2925002 -7.38232443 9.62626404 -6 8 C-5.34 8 -4.68 8 -4 8 C-3.566875 6.8553125 -3.566875 6.8553125 -3.125 5.6875 C-2 3 -2 3 0 0 Z " fill="#8C7C1F" transform="translate(163,135)"/>
<path d="M0 0 C1.32 0.66 2.64 1.32 4 2 C4 5.3 4 8.6 4 12 C3.67 12 3.34 12 3 12 C2.67 9.36 2.34 6.72 2 4 C1.67 5.65 1.34 7.3 1 9 C0.01 8.34 -0.98 7.68 -2 7 C-1.34 4.69 -0.68 2.38 0 0 Z " fill="#2F4E6C" transform="translate(184,167)"/>
<path d="M0 0 C2.31 0.33 4.62 0.66 7 1 C7.625 3.3125 7.625 3.3125 8 6 C7.01 7.485 7.01 7.485 6 9 C5.938125 8.38125 5.87625 7.7625 5.8125 7.125 C5.171081 4.72238859 5.171081 4.72238859 2.4375 3.75 C1.633125 3.5025 0.82875 3.255 0 3 C0 2.01 0 1.02 0 0 Z " fill="#1A4CA1" transform="translate(196,155)"/>
<path d="M0 0 C2 2 2 2 2.1953125 4.6015625 C2.17210937 5.59929687 2.14890625 6.59703125 2.125 7.625 C2.10695312 8.62789062 2.08890625 9.63078125 2.0703125 10.6640625 C2.03550781 11.82035156 2.03550781 11.82035156 2 13 C0.68 12.34 -0.64 11.68 -2 11 C-1.34 7.37 -0.68 3.74 0 0 Z " fill="#8B7C1E" transform="translate(183,154)"/>
<path d="M0 0 C0.99 0.33 1.98 0.66 3 1 C3 3.64 3 6.28 3 9 C2.67 7.68 2.34 6.36 2 5 C1.34 5 0.68 5 0 5 C-0.33 5.66 -0.66 6.32 -1 7 C-1.99 6.67 -2.98 6.34 -4 6 C-2.68 4.02 -1.36 2.04 0 0 Z " fill="#2E4E6B" transform="translate(162,116)"/>
<path d="M0 0 C0.66 0 1.32 0 2 0 C2.05429959 1.74965358 2.09292823 3.49979787 2.125 5.25 C2.14820313 6.22453125 2.17140625 7.1990625 2.1953125 8.203125 C1.99862781 11.0196498 1.44568916 12.60949036 0 15 C-1.33257403 4.44191344 -1.33257403 4.44191344 0 0 Z " fill="#3E5762" transform="translate(163,101)"/>
<path d="M0 0 C2.46800047 1.15173355 4.04783565 2.04783565 6 4 C5.625 6.125 5.625 6.125 5 8 C4.67 7.01 4.34 6.02 4 5 C3.34 6.98 2.68 8.96 2 11 C0.98617037 7.3791799 0.50102309 3.72188582 0 0 Z " fill="#6A6B3B" transform="translate(175,143)"/>
<path d="M0 0 C1.2684375 0.12375 1.2684375 0.12375 2.5625 0.25 C3.2225 1.24 3.8825 2.23 4.5625 3.25 C2.5825 2.59 0.6025 1.93 -1.4375 1.25 C-1.4375 2.24 -1.4375 3.23 -1.4375 4.25 C-0.4475 4.58 0.5425 4.91 1.5625 5.25 C0.2425 5.58 -1.0775 5.91 -2.4375 6.25 C-2.81968767 4.59385343 -3.15145102 2.92542976 -3.4375 1.25 C-2.4375 0.25 -2.4375 0.25 0 0 Z " fill="#ACBFDD" transform="translate(197.4375,153.75)"/>
<path d="M0 0 C0.33 0.99 0.66 1.98 1 3 C1.66 3 2.32 3 3 3 C3 4.98 3 6.96 3 9 C2.34 9 1.68 9 1 9 C0.67 9.66 0.34 10.32 0 11 C0 7.37 0 3.74 0 0 Z " fill="#446CAC" transform="translate(195,120)"/>
<path d="M0 0 C0.33 1.32 0.66 2.64 1 4 C-1.31 4 -3.62 4 -6 4 C-6 3.01 -6 2.02 -6 1 C-4.02 0.67 -2.04 0.34 0 0 Z " fill="#013996" transform="translate(242,126)"/>
<path d="M0 0 C0.66 0 1.32 0 2 0 C1.21681311 3.91593446 -0.39179858 7.36406635 -2 11 C-2.66 10.67 -3.32 10.34 -4 10 C-2.68 6.7 -1.36 3.4 0 0 Z " fill="#94ACD1" transform="translate(233,154)"/>
<path d="M0 0 C0.33 0.66 0.66 1.32 1 2 C1.66 2 2.32 2 3 2 C3 4.31 3 6.62 3 9 C1.35 8.01 -0.3 7.02 -2 6 C-1.34 4.02 -0.68 2.04 0 0 Z " fill="#3C5665" transform="translate(162,130)"/>
<path d="M0 0 C0 0.99 0 1.98 0 3 C-4.75 2.25 -4.75 2.25 -7 0 C-4.3333581 -1.33332095 -2.83319697 -0.67102033 0 0 Z " fill="#184A9F" transform="translate(200,161)"/>
<path d="M0 0 C1.65 0 3.3 0 5 0 C5 1.32 5 2.64 5 4 C3.35 4 1.7 4 0 4 C0 2.68 0 1.36 0 0 Z " fill="#2152A4" transform="translate(196,138)"/>
<path d="M0 0 C2.31 0 4.62 0 7 0 C6.67 0.99 6.34 1.98 6 3 C4.02 3 2.04 3 0 3 C0 2.01 0 1.02 0 0 Z " fill="#1B4EA4" transform="translate(269,122)"/>
<path d="M0 0 C2.0625 0.4375 2.0625 0.4375 4 1 C3.01 1.66 2.02 2.32 1 3 C1 4.32 1 5.64 1 7 C0.01 6.67 -0.98 6.34 -2 6 C-1.125 1.125 -1.125 1.125 0 0 Z " fill="#365267" transform="translate(107,274)"/>
</svg>
